<svg xmlns="http://www.w3.org/2000/svg" width="30.5802001953125" height="9.343937873840332" fill="none" viewBox="0 0 30.5802001953125 9.343937873840332"><path fill="#000" d="M9.561 2.654q1.02 0 1.559.753.537.743.537 2.06 0 1.386-.568 2.266-.568.867-1.533.867-1.641 0-1.845-1.57h.903q.168.819.986.819.557 0 .908-.568.326-.545.326-1.345v-.072h-.04q-.252.346-.598.514-.34.157-.759.157-.844 0-1.347-.552-.49-.516-.49-1.363 0-.86.56-1.406.552-.56 1.401-.56Zm.072.75q-.5 0-.813.341-.301.328-.301.867 0 .542.301.85.297.322.813.322.509 0 .813-.323.292-.338.292-.877 0-.55-.307-.862-.312-.317-.798-.317Zm3.339.984q.253 0 .418.16.162.168.162.415 0 .258-.17.418-.165.163-.41.163-.23 0-.41-.168-.166-.162-.166-.413 0-.255.165-.415.173-.16.41-.16Zm0 2.973q.253 0 .418.163.162.167.162.412 0 .259-.17.419-.165.162-.41.162-.23 0-.41-.168-.166-.162-.166-.413 0-.255.165-.412.173-.163.41-.163Zm3.759-4.625h.885v3.8h.816v.75h-.816v1.231h-.919v-1.23h-2.725v-.899l2.759-3.652Zm-.057 1.203-1.951 2.596h1.974V3.94h-.023Zm4.913-1.203v5.781h-.919v-4.64q-.526.477-1.321.704v-.939q.38-.095.83-.338.427-.26.718-.568h.692Z" style="mix-blend-mode:passthrough"/></svg>