<svg xmlns="http://www.w3.org/2000/svg" width="200" height="200" class="icon" viewBox="0 0 1024 1024"><path d="M786.935 958.775h-66.169c-97.534 0-176.898-79.363-176.898-176.912v-196.07c0-21.395 15.066-39.276 35.183-43.594a44.433 44.433 0 0 1 17.112-3.404h190.773c97.55 0 176.914 79.357 176.914 176.898v66.17c-.002 97.549-79.365 176.912-176.915 176.912zM633.042 627.97v153.893c0 48.375 39.348 87.737 87.724 87.737h66.17c48.375 0 87.738-39.362 87.738-87.737v-66.169c0-48.368-39.363-87.724-87.739-87.724H633.042zM307.71 958.775h-66.17c-97.55 0-176.913-79.363-176.913-176.912v-66.169c0-97.541 79.364-176.898 176.913-176.898h190.773a44.504 44.504 0 0 1 17.097 3.397c20.13 4.31 35.21 22.192 35.21 43.6v196.07c0 97.549-79.362 176.912-176.91 176.912zM241.54 627.97c-48.376 0-87.739 39.356-87.739 87.724v66.17c0 48.374 39.363 87.736 87.739 87.736h66.17c48.374 0 87.737-39.362 87.737-87.737V627.97H241.54zm190.773-149.96H241.54c-97.55 0-176.913-79.355-176.913-176.897v-66.184c0-97.542 79.364-176.898 176.913-176.898h66.17c97.534 0 176.898 79.355 176.898 176.898v196.086c0 21.393-15.067 39.274-35.183 43.592a44.437 44.437 0 0 1-17.112 3.404zM241.54 147.207c-48.376 0-87.739 39.354-87.739 87.723v66.184c0 48.369 39.363 87.724 87.739 87.724h153.893V234.929c0-48.369-39.349-87.723-87.723-87.723h-66.17zM786.935 478.01H596.162a44.504 44.504 0 0 1-17.097-3.395c-20.132-4.31-35.211-22.193-35.211-43.6V234.929c0-97.542 79.364-176.898 176.912-176.898h66.17c97.549 0 176.913 79.355 176.913 176.898v66.184c-.001 97.542-79.364 176.898-176.914 176.898zm-153.907-89.173h153.906c48.376 0 87.739-39.355 87.739-87.724v-66.184c0-48.369-39.363-87.723-87.739-87.723h-66.169c-48.375 0-87.737 39.354-87.737 87.723v153.908z"/></svg>