<svg xmlns="http://www.w3.org/2000/svg" width="40" height="40" fill="none" viewBox="0 0 40 40"><g style="mix-blend-mode:passthrough"><rect width="40" height="40" fill="#2C8CF0" rx="4" style="mix-blend-mode:passthrough"/><path fill="#FFF" d="M23.393 29.675V34l6.303-5.277H24.42c-.513 0-1.026.44-1.026.952ZM28.67 8.42H8.953C8.44 8.42 8 9.006 8 9.52v23.6c0 .514.366.88.88.88h13.56v-5.277c0-.514.513-1.027.953-1.027h6.303V9.372c0-.44-.513-1.026-1.026-.953ZM12.544 26.304c-.66 0-1.172-.513-1.172-1.173s.513-1.173 1.172-1.173c.66 0 1.173.513 1.173 1.173 0 .586-.513 1.173-1.173 1.173Zm0-5.351c-.66 0-1.172-.513-1.172-1.173s.513-1.173 1.172-1.173c.66 0 1.173.513 1.173 1.173s-.513 1.173-1.173 1.173Zm0-5.278c-.66 0-1.172-.513-1.172-1.172 0-.66.513-1.173 1.172-1.173.66 0 1.173.513 1.173 1.173 0 .586-.513 1.172-1.173 1.172Zm12.754 9.602c0 .294-.22.514-.513.514h-8.649a.501.501 0 0 1-.513-.514v-.513c0-.293.22-.513.513-.513h8.65a.5.5 0 0 1 .512.513v.514Zm0-5.277c0 .293-.22.513-.513.513h-8.649a.501.501 0 0 1-.513-.513v-.513c0-.293.22-.513.513-.513h8.65a.5.5 0 0 1 .512.513V20Zm0-5.277c0 .293-.22.513-.513.513h-8.649a.501.501 0 0 1-.513-.513v-.514c0-.293.22-.513.513-.513h8.65a.5.5 0 0 1 .512.513v.514ZM31.236 6H11.152c-.733 0-1.246.733-1.246 1.466h19.79c.513 0 .953.513.953.953v17.885c.733 0 1.466-.44 1.466-1.173V6.88c-.073-.514-.44-.88-.88-.88Z"/></g></svg>