<svg xmlns="http://www.w3.org/2000/svg" width="24" height="24" fill="none" viewBox="0 0 24 24"><g style="mix-blend-mode:passthrough"><path fill="#FA4" d="M1.6 3.2a.8.8 0 0 1 .8-.8h19.2a.8.8 0 0 1 .8.8v17.6a.8.8 0 0 1-.8.8H2.4a.8.8 0 0 1-.8-.8V3.2Z"/><path fill="#FFF" d="M3.2 6.4a.8.8 0 0 1 .8-.8h16a.8.8 0 0 1 .8.8v14.4a.8.8 0 0 1-.8.8H4a.8.8 0 0 1-.8-.8V6.4Z"/><path fill="#07C160" d="M12 12a3.202 3.202 0 0 0 3.112-2.456c.088-.412.416-.744.838-.744h5.65a.8.8 0 0 1 .8.8v11.2a.8.8 0 0 1-.8.8H2.4a.8.8 0 0 1-.8-.8V9.6a.8.8 0 0 1 .8-.8h5.65c.422 0 .75.332.838.744A3.202 3.202 0 0 0 12 12Z"/></g></svg>