<svg xmlns="http://www.w3.org/2000/svg" width="16" height="16" fill="none" viewBox="0 0 16 16"><defs><clipPath id="a"><rect width="16" height="16" rx="0"/></clipPath><filter id="b" width="11.5" height="9.928569793701172" x="0" y="0" color-interpolation-filters="sRGB" filterUnits="objectBoundingBox"><feFlood flood-opacity="0" result="BackgroundImageFix"/><feColorMatrix in="SourceAlpha" values="0 0 0 0 0 0 0 0 0 0 0 0 0 0 0 0 0 0 127 0"/><feOffset dx="0.5" dy="0.5"/><feGaussianBlur/><feColorMatrix values="0 0 0 0 0 0 0 0 0 0 0 0 0 0 0 0 0 0 0.3019607961177826 0"/><feBlend in2="BackgroundImageFix" result="effect1_dropShadow"/><feBlend in="SourceGraphic" in2="effect1_dropShadow" result="shape"/></filter></defs><g clip-path="url(#a)" style="mix-blend-mode:passthrough"><rect width="16" height="16" fill="#FFF" rx="0"/><rect width="16" height="16" fill="#86909C" rx="2" style="mix-blend-mode:passthrough"/><g filter="url(#b)"><path fill="#FFF" d="M4.02 11.695h-.083c-.887 0-1.556-.655-1.42-1.375.217-1.136.778-1.983 1.911-2.233-.633-.312-1.076-1.017-1.076-1.841 0-1.112.804-2.012 1.799-2.012.09 0 .177.015.266.03-.192.432-.31.915-.31 1.43 0 .852.298 1.651.804 2.244-.982.555-1.619 1.564-1.896 3.015-.048.25-.04.5.006.742Zm9.462-1.374c-.217-1.136-.777-1.983-1.91-2.233.632-.312 1.076-1.017 1.076-1.841 0-1.111-.805-2.012-1.798-2.012-.084 0-.167.016-.248.029.193.434.31.916.31 1.433a3.45 3.45 0 0 1-.826 2.268c.95.563 1.597 1.565 1.89 2.954.057.26.055.522.007.777h.08c.888-.001 1.557-.656 1.419-1.375ZM9.594 12.68c.615 0 1.187-.268 1.49-.698a1.1 1.1 0 0 0 .195-.878c-.325-1.54-1.122-2.469-2.367-2.76l-.589-.138.552-.267c.801-.388 1.318-1.267 1.318-2.243 0-1.348-.98-2.445-2.184-2.445-1.205 0-2.185 1.097-2.185 2.445 0 .968.513 1.846 1.309 2.236l.557.274-.598.132C5.797 8.62 5.022 9.53 4.72 11.12a1.11 1.11 0 0 0 .206.872c.31.43.864.685 1.481.685h3.188v.002Z"/></g></g></svg>