<svg xmlns="http://www.w3.org/2000/svg" width="200" height="200" class="icon" viewBox="0 0 1024 1024"><path fill="#fff" d="M583.72 385.763c80.657 108.135 226.425 152.67 226.425 152.67-10.893-187.192-122.71-278.664-299.733-279.563-211.77-1.08-334.784 170.304-288.402 338.997 0 0 358.76-134.913 361.71-212.104z"/><path fill="#fff" d="M843.844 721.202c65.94-16.945 114.865-15.888 114.865-150.872 0-65.013-38.867-120.714-93.98-144.029-40.6-153.75-167.01-310.065-356.839-314.342-6.053-.135-12.062-.158-18.004 0C306 116.684 179.993 258.868 165.816 423.78c-58.445 21.626-102.442 79.103-100.462 146.55 4.433 151.456 66.322 153.863 148.713 155.55V432.783C215.8 307.478 338.563 168.489 507.89 168.489c168.314 0 261.416 131 302.465 247.37v301.38c-8.282 19.4-30.45 41.207-70.936 80.297-52.82 50.972-128.908 77.414-128.908 77.414-8.845 1.868-15.079 13.684-12.603 23.765 2.475 10.082 13.253 16.136 21.605 12.242 0 0 80.274-26.195 140.43-84.257 59.55-57.496 83.697-104.937 83.9-105.498z"/><path fill="#fff" d="M337.861 624.216a36.613 36.613 0 1 0 74.933 0 36.613 36.613 0 1 0-74.933 0Zm281.967 0a36.613 36.613 0 1 0 74.932 0 36.613 36.613 0 1 0-74.932 0Z"/></svg>