<svg xmlns="http://www.w3.org/2000/svg" width="16" height="16" fill="none" viewBox="0 0 16 16"><defs><clipPath id="a"><rect width="16" height="16" rx="0"/></clipPath><filter id="b" width="10.999999046325684" height="11.003594398498535" x="-0.5" y="0" color-interpolation-filters="sRGB" filterUnits="objectBoundingBox"><feFlood flood-opacity="0" result="BackgroundImageFix"/><feColorMatrix in="SourceAlpha" values="0 0 0 0 0 0 0 0 0 0 0 0 0 0 0 0 0 0 127 0"/><feOffset dx="-0.5" dy="0.5"/><feGaussianBlur/><feColorMatrix values="0 0 0 0 0.5254902243614197 0 0 0 0 0.5647059082984924 0 0 0 0 0.6117647290229797 0 0 0 1 0"/><feBlend in2="BackgroundImageFix" result="effect1_dropShadow"/><feBlend in="SourceGraphic" in2="effect1_dropShadow" result="shape"/></filter></defs><g clip-path="url(#a)" style="mix-blend-mode:passthrough"><rect width="16" height="16" fill="#FFF" rx="0"/><g style="mix-blend-mode:passthrough"><rect width="16" height="16" fill="#B0B7BF" rx="2" style="mix-blend-mode:passthrough"/><g filter="url(#b)" style="mix-blend-mode:passthrough" transform="matrix(-1 0 0 1 26.5 0)"><path fill="#FFF" d="M15.043 11.724a.925.925 0 0 0-.136.991c.15.33.48.539.839.539h7.079a.922.922 0 0 0 .84-.539c.15-.33.1-.718-.137-.99L21.204 9.01a3.79 3.79 0 0 1-1.922.538 3.693 3.693 0 0 1-1.915-.538l-2.324 2.713Z"/><path fill="#86909C" d="M19.912 11.74a.063.063 0 0 1-.01.063l-.748.907a.057.057 0 0 1-.046.022.056.056 0 0 1-.046-.022l-.747-.907a.064.064 0 0 1-.012-.062l.748-2.083a.058.058 0 0 1 .057-.04c.025 0 .047.016.055.04l.749 2.083Z"/><path fill="#FFF" d="M16.198 5.844a3.09 3.09 0 0 0 3.084 3.096 3.09 3.09 0 0 0 3.084-3.096 3.09 3.09 0 0 0-3.084-3.094 3.09 3.09 0 0 0-3.084 3.094Zm.208 3.669V8.077a.383.383 0 0 0-.38-.38H13.63a.383.383 0 0 0-.38.38v4.796c0 .208.172.38.38.38h1.198a1.083 1.083 0 0 1-.387-.452 1.116 1.116 0 0 1 .165-1.184l1.8-2.104Zm-2.618-.804c0-.158.129-.287.287-.287h1.434a.288.288 0 0 1 0 .574h-1.434a.279.279 0 0 1-.287-.287Zm.287 1.25a.288.288 0 0 1 0-.575h1.434a.288.288 0 0 1 0 .574h-1.434Z"/></g></g></g></svg>