<svg xmlns="http://www.w3.org/2000/svg" width="16" height="16" fill="none" viewBox="0 0 16 16"><g fill="#000" fill-opacity="0.20000000298023224" style="mix-blend-mode:passthrough"><path d="M3.64 12.36Q5.446 14.164 8 14.164q2.554 0 4.36-1.806 1.807-1.806 1.807-4.36 0-2.555-1.807-4.36Q10.554 1.831 8 1.831q-2.554 0-4.36 1.806-1.807 1.806-1.807 4.36 0 2.555 1.807 4.361Zm-.708.706Q.833 10.967.833 8q0-2.969 2.1-5.068Q5.031.832 8 .832q2.969 0 5.068 2.1 2.099 2.098 2.099 5.067 0 2.968-2.1 5.067-2.098 2.1-5.067 2.1-2.968 0-5.068-2.1Z"/><path d="M5.5 6.207q0-1.036.732-1.768T8 3.707q1.036 0 1.768.732t.732 1.768q0 1.036-.732 1.768T8 8.707v-.5h.5V9.54q0 .05-.01.098t-.028.094q-.019.045-.046.086-.028.041-.062.076-.035.035-.076.062-.041.027-.087.046-.045.02-.093.029-.049.01-.098.01-.05 0-.098-.01t-.093-.029q-.046-.019-.087-.046-.04-.027-.076-.062-.034-.035-.062-.076-.027-.04-.046-.086-.019-.046-.028-.094-.01-.048-.01-.098V8.207q0-.05.01-.098t.028-.093q.019-.046.046-.087.028-.04.062-.076.035-.034.076-.062.041-.027.087-.046.045-.019.093-.028.049-.01.098-.01.621 0 1.06-.44.44-.439.44-1.06t-.44-1.06q-.439-.44-1.06-.44t-1.06.44q-.44.439-.44 1.06 0 .05-.01.098t-.028.093q-.019.046-.046.087-.028.04-.062.076-.035.034-.076.062-.041.027-.087.046-.045.019-.093.028-.049.01-.098.01-.05 0-.098-.01T5.81 6.67q-.046-.019-.087-.046-.04-.028-.076-.062-.034-.035-.062-.076-.027-.041-.046-.087-.019-.045-.028-.093-.01-.049-.01-.098Zm1 0q0 .05-.01.098t-.028.093q-.019.046-.046.087-.028.04-.062.076-.035.034-.076.062-.041.027-.087.046-.045.019-.093.028-.049.01-.098.01-.05 0-.098-.01T5.81 6.67q-.046-.019-.087-.046-.04-.028-.076-.062-.034-.035-.062-.076-.027-.041-.046-.087-.019-.045-.028-.093-.01-.049-.01-.098 0-.05.01-.098t.028-.093q.019-.046.046-.087.028-.04.062-.076.035-.034.076-.062.041-.027.087-.046.045-.019.093-.028.049-.01.098-.01.05 0 .098.01t.093.028q.046.019.087.046.04.028.076.062.034.035.062.076.027.041.046.087.019.045.028.093.01.049.01.098Zm2 3.333q0 .05-.01.098t-.028.094q-.019.045-.046.086-.028.041-.062.076-.035.035-.076.062-.041.027-.087.046-.045.02-.093.029-.049.01-.098.01-.05 0-.098-.01t-.093-.029q-.046-.019-.087-.046-.04-.027-.076-.062-.034-.035-.062-.076-.027-.04-.046-.086-.019-.046-.028-.094-.01-.048-.01-.098 0-.049.01-.097.01-.049.028-.094.019-.046.046-.086.028-.041.062-.076.035-.035.076-.062.041-.028.087-.047.045-.018.093-.028.049-.01.098-.01.05 0 .098.01t.093.028q.046.02.087.047.04.027.076.062.034.035.062.076.027.04.046.086.019.045.028.094.01.048.01.097Z"/><path fill-rule="evenodd" d="M7.867 12.275a.7.7 0 1 0 0-1.4.7.7 0 0 0 0 1.4Z"/></g></svg>