<svg xmlns="http://www.w3.org/2000/svg" width="200" height="200" class="icon" viewBox="0 0 1024 1024"><path d="M426.667 938.667A42.667 42.667 0 0 1 384 981.333H149.205A106.539 106.539 0 0 1 42.667 874.517V511.851c0-47.744 27.328-106.816 63.786-137.792L484.352 52.82a42.667 42.667 0 0 1 55.253 0l377.942 321.24c36.48 31.061 63.786 89.984 63.786 137.813V874.54a106.624 106.624 0 0 1-106.688 106.794H640a42.667 42.667 0 0 1-42.667-42.666v-256H426.667v256zM874.645 896A21.29 21.29 0 0 0 896 874.517V511.851c0-22.784-16.277-57.942-33.707-72.768L512 141.333l-350.293 297.75C144.34 453.845 128 489.152 128 511.85v362.666A21.205 21.205 0 0 0 149.205 896h192.128V640A42.667 42.667 0 0 1 384 597.333h256A42.667 42.667 0 0 1 682.667 640v256h191.978z"/></svg>