<svg xmlns="http://www.w3.org/2000/svg" width="16" height="16" fill="none" viewBox="0 0 16 16"><defs><clipPath id="a"><rect width="16" height="16" rx="0"/></clipPath><filter id="b" width="10.499876022338867" height="10.5" x="0" y="0" color-interpolation-filters="sRGB" filterUnits="objectBoundingBox"><feFlood flood-opacity="0" result="BackgroundImageFix"/><feColorMatrix in="SourceAlpha" values="0 0 0 0 0 0 0 0 0 0 0 0 0 0 0 0 0 0 127 0"/><feOffset dx="0.5" dy="0.5"/><feGaussianBlur/><feColorMatrix values="0 0 0 0 0.5254902243614197 0 0 0 0 0.5647059082984924 0 0 0 0 0.6117647290229797 0 0 0 1 0"/><feBlend in2="BackgroundImageFix" result="effect1_dropShadow"/><feBlend in="SourceGraphic" in2="effect1_dropShadow" result="shape"/></filter></defs><g clip-path="url(#a)" style="mix-blend-mode:passthrough"><rect width="16" height="16" fill="#FFF" rx="0"/><rect width="16" height="16" fill="#B0B7BF" rx="2" style="mix-blend-mode:passthrough"/><g filter="url(#b)"><path fill="#FFF" d="M9.719 7.219c0 .173-.14.312-.313.312H6.594a.312.312 0 0 1-.313-.312c0-.593.301-1.116.757-1.425a1.561 1.561 0 1 1 2.524-1.257 1.56 1.56 0 0 1-.6 1.257 1.723 1.723 0 0 1 .757 1.425Zm3.28 5.468a.312.312 0 0 1-.312.313H9.875a.312.312 0 0 1-.313-.313c0-.592.301-1.116.757-1.424a1.561 1.561 0 1 1 2.525-1.257 1.56 1.56 0 0 1-.6 1.257A1.723 1.723 0 0 1 13 12.688Zm-6.562 0c0 .173-.14.313-.312.313H3.312A.312.312 0 0 1 3 12.687c0-.592.3-1.116.757-1.424a1.561 1.561 0 1 1 1.924 0 1.723 1.723 0 0 1 .756 1.425Zm2.767-2.656a.311.311 0 0 1-.427.115L8 9.697l-.777.449a.313.313 0 0 1-.313-.541l.777-.449v-.843a.312.312 0 1 1 .625 0v.842l.778.449c.15.086.2.278.114.427Z"/></g></g></svg>