<svg xmlns="http://www.w3.org/2000/svg" width="40" height="40" fill="none" viewBox="0 0 40 40"><g style="mix-blend-mode:passthrough"><rect width="40" height="40" fill="#2C8CF0" rx="4" style="mix-blend-mode:passthrough"/><path fill="#FFF" d="M11.523 14.236c-.708 0-1.304.246-1.785.738-.48.491-.72 1.091-.72 1.803 0 .687.24 1.276.72 1.767.48.492 1.077.738 1.785.738a2.41 2.41 0 0 0 1.768-.738 2.41 2.41 0 0 0 .737-1.767c0-.708-.246-1.312-.737-1.803a2.425 2.425 0 0 0-1.768-.738Zm14.518-3.979H6.99c-.596 0-1.077.214-1.442.636-.365.423-.549.969-.549 1.63v19.292c0 .618.217 1.156.65 1.612.434.459.926.687 1.475.687h19.187c.64 0 1.178-.225 1.612-.67.433-.444.65-.931.65-1.46V13.037c0-.823-.199-1.492-.6-2.009-.394-.513-1.04-.77-1.933-.77Zm.376 8.374c-1.283.047-2.386.235-3.31.567-.926.333-1.75.738-2.473 1.218a17.05 17.05 0 0 0-1.973 1.53c-.596.538-1.2 1.04-1.818 1.51a9.499 9.499 0 0 1-2.01 1.167c-.718.31-1.56.463-2.522.463-.64 0-1.236-.087-1.785-.257a8.157 8.157 0 0 1-1.493-.618 6.521 6.521 0 0 1-1.167-.788 8.412 8.412 0 0 1-.773-.737V13.48c0-.206.057-.376.17-.513.115-.137.252-.246.411-.325a2.14 2.14 0 0 1 .857-.225h16.371c.528 0 .911.145 1.15.43.238.286.361.626.361 1.012v4.771h.004Zm7.705-11.67C33.54 6.321 32.767 6 31.805 6H15.506c-.528 0-.98.184-1.355.55a1.8 1.8 0 0 0-.568 1.337v.307h13.213c1.42 0 2.425.264 3.021.788.597.527.893 1.43.893 2.71v2.884h1.475c.253 0 .47.09.65.275a.888.888 0 0 1 .275.65c0 .275-.09.503-.275.687a.888.888 0 0 1-.65.275H30.71v2.435h1.475c.253 0 .47.098.65.293a.95.95 0 0 1 .275.669c0 .253-.09.47-.275.65a.888.888 0 0 1-.65.275H30.71v2.678h1.475c.253 0 .47.09.65.275a.888.888 0 0 1 .275.65c0 .275-.09.502-.275.687a.888.888 0 0 1-.65.274H30.71v4.153h2.367c.528 0 .98-.184 1.356-.55A1.8 1.8 0 0 0 35 27.616V9.149c0-.813-.293-1.547-.878-2.187Z"/></g></svg>