<svg xmlns="http://www.w3.org/2000/svg" width="200" height="200" class="icon" viewBox="0 0 1024 1024"><path fill="#F56566" d="M877.158 511.898H856.73a14.887 14.887 0 0 0-.87-.973l-62.567-62.515a26.767 26.767 0 0 0-23.91-38.81h-.154c-14.746.102-26.624 12.032-26.624 26.778 0 4.966 1.331 9.625 3.686 13.568l-61.9 61.952h-21.556c-26.931 0-48.742 16.588-48.742 37.068v188.98c0 20.428 21.811 37.017 48.742 37.017h214.323c26.932 0 48.743-16.589 48.743-37.017v-188.98c0-20.48-21.811-37.068-48.743-37.068zm-107.878 0h-36.66l36.66-36.66 1.331-1.33 37.99 37.99H769.28z" opacity=".5"/><path fill="#F56566" d="M769.229 409.6c-.717-42.496-46.234-76.8-102.349-76.8h-42.957c-.614-.717-1.177-1.382-1.843-2.048l-131.43-131.43a56.29 56.29 0 0 0-50.33-81.562c-31.13 0-56.32 25.19-56.32 56.32a55.532 55.532 0 0 0 7.834 28.518L261.632 332.8H216.32c-56.576 0-102.4 34.867-102.4 77.875v397.21c0 43.008 45.824 77.875 102.4 77.875h450.56c56.576 0 102.4-34.867 102.4-77.875v-397.21c0-.358 0-.717-.051-1.075zM442.88 252.928l79.872 79.872H363.008l79.872-79.872zm-7.936 458.496A35.625 35.625 0 0 1 409.6 721.92H276.48c-19.814 0-35.84-16.026-35.84-35.84s16.026-35.84 35.84-35.84H409.6c19.814 0 35.84 16.026 35.84 35.84 0 9.933-3.994 18.842-10.496 25.344zm143.36-143.36a35.625 35.625 0 0 1-25.344 10.496H276.48c-19.814 0-35.84-16.026-35.84-35.84s16.026-35.84 35.84-35.84h276.48c19.814 0 35.84 16.026 35.84 35.84 0 9.933-3.994 18.842-10.496 25.344z"/></svg>