<svg xmlns="http://www.w3.org/2000/svg" width="102" height="102" fill="none" viewBox="0 0 102 102"><defs><linearGradient id="c" x1="1.4458807706832886" x2="0.29515957832336426" y1="0.9879999756813049" y2="1"><stop offset="0%" stop-color="#E0E5EF" stop-opacity="0"/><stop offset="100%" stop-color="#E0E5EF"/></linearGradient><linearGradient id="d" x1="1.4458807706832886" x2="0.29515957832336426" y1="0.9879999756813049" y2="1"><stop offset="0%" stop-color="#E0E5EF" stop-opacity="0"/><stop offset="100%" stop-color="#E0E5EF"/></linearGradient><linearGradient id="e" x1="1.4458807706832886" x2="0.29515957832336426" y1="0.9879999756813049" y2="1"><stop offset="0%" stop-color="#E0E5EF" stop-opacity="0"/><stop offset="100%" stop-color="#E0E5EF"/></linearGradient><linearGradient id="f" x1="0.40830326080322266" x2="0.40830326080322266" y1="0.4488910436630249" y2="0"><stop offset="0%" stop-color="#E8EBF1" stop-opacity="0.10000000149011612"/><stop offset="100%" stop-color="#477ED6"/></linearGradient><linearGradient id="g" x1="0.5" x2="0.5099999904632568" y1="1.261823058128357" y2="-0.20096860826015472"><stop offset="0%" stop-color="#3A90D6"/><stop offset="100%" stop-color="#9AB7F5"/></linearGradient><linearGradient id="h" x1="0.5" x2="0.5099999904632568" y1="1.261823058128357" y2="-0.20096860826015472"><stop offset="0%" stop-color="#1E85D9"/><stop offset="100%" stop-color="#D3DEF5"/></linearGradient><linearGradient id="i" x1="0.5" x2="0.5099999904632568" y1="1" y2="-0.11225798726081848"><stop offset="0%" stop-color="#2E95E8"/><stop offset="100%" stop-color="#E7EAF0"/></linearGradient><linearGradient id="j" x1="0.5" x2="0.5099999904632568" y1="1" y2="-0.11225798726081848"><stop offset="0%" stop-color="#0079DE"/><stop offset="100%" stop-color="#E7EAF0"/></linearGradient><linearGradient id="k" x1="0.5" x2="0.5099999904632568" y1="1.261823058128357" y2="-0.20096860826015472"><stop offset="0%" stop-color="#2388DB"/><stop offset="100%" stop-color="#C9D6F0"/></linearGradient><linearGradient id="l" x1="0.5" x2="0.5099999904632568" y1="1.261823058128357" y2="-0.20096860826015472"><stop offset="0%" stop-color="#4DA4EB"/><stop offset="100%" stop-color="#BECCEB"/></linearGradient><linearGradient id="m" x1="1.0929325819015503" x2="0.09177931398153305" y1="1" y2="0"><stop offset="0%" stop-color="#A2ABB9"/><stop offset="100%" stop-color="#E7EAF0"/></linearGradient><linearGradient id="n" x1="1.0929325819015503" x2="0.09177931398153305" y1="1" y2="0"><stop offset="0%" stop-color="#A2ABB9"/><stop offset="100%" stop-color="#E7EAF0"/></linearGradient><linearGradient id="o" x1="0" x2="1" y1="1" y2="0.041184231638908386"><stop offset="0%" stop-color="#A2ABB9"/><stop offset="100%" stop-color="#E4E7EE"/></linearGradient><linearGradient id="p" x1="-0.0844229906797409" x2="1" y1="1" y2="0.20408885180950165"><stop offset="0%" stop-color="#A2ABB9"/><stop offset="100%" stop-color="#E7EAF0"/></linearGradient><linearGradient id="q" x1="0" x2="1" y1="1" y2="0"><stop offset="0%" stop-color="#A2ABB9"/><stop offset="100%" stop-color="#E7EAF0"/></linearGradient><linearGradient id="r" x1="0.08415277302265167" x2="1.0203032493591309" y1="0.9717057943344116" y2="-0.09466772526502609"><stop offset="0%" stop-color="#C0C7D2"/><stop offset="100%" stop-color="#A2ABB9"/></linearGradient><linearGradient id="s" x1="0.08415277302265167" x2="1.0203032493591309" y1="0.9717057943344116" y2="-0.09466772526502609"><stop offset="0%" stop-color="#C0C7D2"/><stop offset="100%" stop-color="#A2ABB9"/></linearGradient><linearGradient id="t" x1="0.08415277302265167" x2="1.0203032493591309" y1="0.9717057943344116" y2="-0.09466772526502609"><stop offset="0%" stop-color="#C0C7D2"/><stop offset="100%" stop-color="#A2ABB9"/></linearGradient><linearGradient id="u" x1="0" x2="1" y1="1" y2="0"><stop offset="0%" stop-color="#909AA9"/><stop offset="100%" stop-color="#C0C7D2"/></linearGradient><linearGradient id="v" x1="1.257321834564209" x2="0" y1="1" y2="-0.08946135640144348"><stop offset="0%" stop-color="#909AA9"/><stop offset="100%" stop-color="#C0C7D2"/></linearGradient><linearGradient id="w" x1="0" x2="1" y1="1" y2="0"><stop offset="0%" stop-color="#909AA9"/><stop offset="100%" stop-color="#C0C7D2"/></linearGradient><mask id="b"><rect width="100" height="100" x="1" y="0.875" fill="#FFF" rx="0"/></mask></defs><clipPath id="a"><rect width="100" height="100" x="1" y="1" rx="0"/></clipPath><g clip-path="url(#a)" mask="url(#b)" style="mix-blend-mode:passthrough"><path fill="#F3F3FA" fill-opacity="0.6000000238418579" fill-rule="evenodd" d="M87.98 50.542c0-1.214-.06-2.415-.177-3.598h5.863a2.666 2.666 0 0 0 2.667-2.667v-.148a2.667 2.667 0 0 0-2.016-2.587H83a2.666 2.666 0 0 1-2.667-2.667v-.833A2.666 2.666 0 0 1 83 35.375h3.29a2.332 2.332 0 0 0 1.69-2.243v-.13a2.334 2.334 0 0 0-2.333-2.333H82.07a37.066 37.066 0 0 0-3.876-4.96h-7.527a2.167 2.167 0 0 1-2.167-2.167v-.167c0-1.197.97-2.167 2.167-2.167h2.526c-6.285-4.706-14.128-7.5-22.632-7.5-4.329 0-8.486.724-12.354 2.056H24.14a3.167 3.167 0 0 0-3.166 3.167v.176c0 .84.333 1.645.926 2.24a3.17 3.17 0 0 0 2.24.927h2.432l-.122.101h4.882c.442 0 .867.175 1.179.488a1.662 1.662 0 0 1 0 2.357 1.662 1.662 0 0 1-1.179.488H10.23a4.668 4.668 0 0 0-4.396 4.66v.26a4.666 4.666 0 0 0 4.667 4.666h5.99a36.208 36.208 0 0 0-3.347 15.248c0 .574.013 1.145.04 1.713H9.809a1.712 1.712 0 0 0-1.713 1.713 1.712 1.712 0 0 0 1.713 1.714h3.696c0 .009.002.017.003.026H15c1.197 0 2.167.97 2.167 2.167v.167c0 1.196-.97 2.166-2.167 2.166h-1.73a1.023 1.023 0 0 0-.648.956c0 .567.462 1.027 1.028 1.027h1.405c4.953 14.632 18.981 25.184 35.507 25.184 20.662 0 37.419-16.493 37.419-36.833Z"/><g fill-rule="evenodd"><path fill="url(#c)" d="M30.377 68.295a1.27 1.27 0 0 0 .79-1.185l-.03-.188-.059-.234a4.365 4.365 0 0 1-.073-.25l-.248-.495a1.89 1.89 0 0 0 .073-.496 1.717 1.717 0 0 0-1.142-1.623l-1.843-3.607a1.71 1.71 0 0 0-.622-.732 1.666 1.666 0 0 0-.943-.277c-.4 0-.727.122-.982.365a3.584 3.584 0 0 0-.658.877h-.015l-2.297 4.252a1.728 1.728 0 0 0-.386.481 1.474 1.474 0 0 0-.184.599l-.366.848a.957.957 0 0 0-.044.145q-.015.103-.015.162c0 .34.107.635.322.883a1.5 1.5 0 0 0 .805.488l1.653.089a.915.915 0 0 0 .3.321.782.782 0 0 0 .432.117c.205 0 .39-.073.557-.22v2.235a52.371 52.371 0 0 1-.045 2.457l-.044.568h2.107a46.06 46.06 0 0 1-.123-1.995 26.459 26.459 0 0 1-.022-1.088v-2.439l2.282-.03h.278c.098 0 .185-.003.263-.015.099 0 .19-.003.279-.013Z"/><path fill="url(#d)" d="M76.08 68.718a.782.782 0 0 0 .432.117c.205 0 .39-.073.556-.22v2.235a52.371 52.371 0 0 1-.045 2.457l-.043.568h2.107a46.06 46.06 0 0 1-.123-1.995 26.459 26.459 0 0 1-.022-1.088v-2.439l2.281-.03h.279c.098 0 .185-.003.263-.015.098 0 .19-.003.278-.013a1.27 1.27 0 0 0 .57-.462c.147-.208.22-.45.22-.723l-.03-.188-.058-.234a4.365 4.365 0 0 1-.073-.25l-.249-.495c.049-.176.074-.341.074-.496a1.717 1.717 0 0 0-1.142-1.623l-1.843-3.607a1.71 1.71 0 0 0-.622-.732 1.666 1.666 0 0 0-.943-.277c-.4 0-.727.122-.982.365a3.584 3.584 0 0 0-.658.877h-.015l-2.297 4.252a1.728 1.728 0 0 0-.387.481 1.474 1.474 0 0 0-.183.599l-.367.848a.957.957 0 0 0-.043.145q-.015.103-.015.162c0 .34.107.635.322.883a1.5 1.5 0 0 0 .805.488l1.653.089a.915.915 0 0 0 .3.321Z"/><path fill="url(#e)" d="M76.347 67.655a1.46 1.46 0 0 0 .058-.388 1.29 1.29 0 0 0-.252-.79c-.166-.23-.38-.39-.638-.484l-1.438-2.828a1.34 1.34 0 0 0-.485-.573 1.29 1.29 0 0 0-.735-.217c-.312 0-.567.095-.765.287a2.78 2.78 0 0 0-.514.686h-.011l-1.79 3.334a1.367 1.367 0 0 0-.304.378c-.08.145-.128.302-.141.47l-.285.663a.606.606 0 0 0-.035.115q-.012.08-.012.127c0 .267.083.497.25.693.168.194.377.322.628.382l1.289.07c.061.107.14.19.235.252a.603.603 0 0 0 .336.091c.16 0 .304-.056.434-.171v1.751a46.539 46.539 0 0 1-.035 1.925l-.034.447h1.642a31.41 31.41 0 0 1-.057-.79 24.528 24.528 0 0 1-.057-1.627v-1.913l1.78-.023h.217c.077 0 .145-.004.205-.012.077 0 .149-.003.217-.01a.994.994 0 0 0 .617-.928l-.024-.149-.045-.183a2.42 2.42 0 0 1-.056-.195l-.195-.39Z"/></g><path fill="#E4E9F7" fill-rule="evenodd" d="M74.295 72.21c-6.44-1.334-15.651-2.168-25.878-2.168-19.465 0-35.25 3.023-35.25 6.75 0 2.848 9.22 5.286 22.259 6.276 1.528 3.483 9.637 6.14 19.407 6.14 10.86 0 19.667-3.283 19.667-7.333 0-.18-.017-.357-.051-.533a45.976 45.976 0 0 0 3.573-.886c4.458-.591 7.645-2.158 7.645-3.998 0-2.32-5.073-4.208-11.372-4.249Z"/><path fill="url(#f)" fill-opacity="0.5" fill-rule="evenodd" d="m41.51 117.432 29.5 6.904-10.69-44.682H49.704l-8.195 37.778Z" transform="rotate(-50 41.51 79.654)"/><g fill-rule="evenodd"><path fill="url(#g)" d="M49.167 55.875v8.398l16.563 1.935.27-8.216-16.833-2.117Z"/><path fill="url(#h)" d="m35.833 68.042 13.334-2.724-.004-9.443-13.33 2.74v9.427Z"/><path fill="url(#i)" d="m51.5 79.708 14.333-3.695V58.542L51.5 62.237v17.471Z"/><path fill="url(#j)" d="m36 76.228 15.575 3.48.092-17.541L36 59.042v17.186Z"/><path fill="url(#k)" d="M35.862 58.875 32.5 65.07l16.073 3.805 3.094-6.637-15.805-3.363Z"/><path fill="url(#l)" d="m55.923 68.875 13.744-4.513-3.652-6.154-14.348 3.954 4.256 6.713Z"/></g><path fill="url(#m)" d="M41.531 46.495q-5.678-2.167-6.988-5.462-1.313-3.304 1.765-7.71l.136.095q-3.026 4.333-1.746 7.553 1.283 3.228 6.893 5.368l-.06.156Z"/><path fill="url(#n)" d="M38.73 48.085q-1.729 0-3.819-2.598l.13-.104q2.04 2.535 3.688 2.535v.167Z"/><path fill="url(#o)" d="M53.588 36.7q14.808-3.095 14.534-10.793l.167-.006q.279 7.839-14.667 10.963l-.034-.163Z"/><path fill="url(#p)" d="M63.819 35.396q2.028 0 5.655-3.04l.107.128q-3.674 3.078-5.762 3.078v-.166Z"/><path fill="url(#q)" d="M47.366 51.63q3.714-9.194 18.144-7.451l-.02.165q-14.303-1.727-17.97 7.349l-.154-.062Z"/><path fill="url(#r)" fill-rule="evenodd" d="M43.1 42.069q1.54-3.367-6.947-4.697 5.408 8.062 6.946 4.697Z"/><path fill="url(#s)" fill-rule="evenodd" d="M62.962 29.49q-5.249-1.465-6.49 2.93 6.263-.913 6.49-2.93Z"/><path fill="url(#t)" fill-rule="evenodd" d="M59.716 49.535q-6.957-3.245-10.832 4.292 7.587 1.712 10.832-4.292Z"/><path fill="url(#u)" d="M58.196 31.421q-1.518.56-2.454 2.564l-.15-.07q.964-2.066 2.546-2.65l.058.156Z"/><path fill="url(#v)" d="M43.253 44.82q0-2.937-1.71-3.333l.037-.163q1.84.427 1.84 3.497h-.167Z"/><path fill="url(#w)" d="M51.777 52.767q-2.508 0-3.926 2.706l-.148-.078q1.465-2.794 4.074-2.794v.166Z"/></g></svg>