<svg xmlns="http://www.w3.org/2000/svg" width="40" height="40" fill="none" viewBox="0 0 40 40"><rect width="40" height="40" fill="#0052CC" rx="4"/><path fill="#FFF" d="M26.436 6H9.872C8.842 6 8 6.841 8 7.871V32.13C8 33.159 8.842 34 9.872 34h20.772c1.03 0 1.871-.841 1.871-1.871v-20.05L26.436 6Z"/><path fill="#267DFF" d="M26.437 10.207c0 1.03.841 1.872 1.871 1.872h4.207L26.437 6v4.207Z"/><path fill="#D5E8FC" d="M20.027 30.489H8v-6.674h12.012c.566 0 1.03.436 1.03.972v4.715c.015.552-.45.987-1.015.987Z"/><path fill="#0052CC" d="M10.253 29.332q.4-.437.664-.845.265-.408.425-.835l-.53-.282q-.061.211-.141.422H10q.479-1.3.61-2.684h.652q-.028.31-.047.46h1.037q0 .845-.096 1.471-.096.627-.347 1.187-.251.561-.716 1.106h-.84Zm1.263-2.28q.089-.4.117-.874h-.54q-.056.333-.117.587l.54.286Zm1.102-1.944h.61v4.224h-.61v-4.224Zm1.338.793q.323 1.22.366 2.544h-.568q-.042-1.272-.408-2.544h.61Zm3.378.02h-.3v-.583h.474l.075-.253h.6l-.075.253h.854v.582h-1.07l-.168.591h.201V26.1h.517v.412h.473v.564h-.492v.46h.586v.562h-.586v.498h-.587v-.498h-.802v-.563h.802v-.46h-.844l.342-1.154Zm-2.642.736q.226-.77.24-1.549h.605l-.014.352h.549v.582h-.61q-.019.155-.056.315h.6v.572h-.305v.413h.37v.572h-.37v.671l.366-.089v.606l-.943.23v-1.418h-.338v-.572h.338v-.413h-.197v-.272h-.235Zm1.338 2.675q.192-.62.262-1.11.07-.49.08-1.166h-.263v-.61h.845q-.005.704-.026 1.138-.02.434-.082.842.146.14.329.204.183.063.44.063h1.441v.592h-1.44q-.31 0-.516-.059-.207-.059-.366-.2l-.076.306h-.628Zm.722-4.224.188 1.019h-.558l-.188-1.019h.558Zm2.851-8.749-2.248 2.248-1.48-1.509 2.249-2.248-.392-.363a.543.543 0 0 0-.754 0l-2.235 2.234a.543.543 0 0 0 0 .755l2.25 2.248a.543.543 0 0 0 .753 0l2.25-2.248a.543.543 0 0 0 0-.755l-.393-.362Zm4.12-3.366-2.248-2.249a.527.527 0 0 0-.754 0l-2.235 2.249a.527.527 0 0 0 0 .754l.74.74-.362-.363 2.248-2.248 1.495 1.494-2.25 2.234.378.377a.543.543 0 0 0 .754 0l2.25-2.248a.54.54 0 0 0-.015-.74Zm-5.991 3.728a.543.543 0 0 0 .754 0l2.25-2.234a.511.511 0 0 0 .13-.508.523.523 0 0 0-.378-.377.502.502 0 0 0-.507.13l-.74.755-.377.377-1.118 1.117a.513.513 0 0 0-.014.74Z"/></svg>