<svg xmlns="http://www.w3.org/2000/svg" width="40" height="40" fill="none" viewBox="0 0 40 40"><g style="mix-blend-mode:passthrough"><rect width="40" height="40" fill="#2C8CF0" rx="4" style="mix-blend-mode:passthrough"/><path fill="#FFF" d="M26.5 18.084a2.786 2.786 0 1 0 .103-5.572 2.786 2.786 0 0 0-.102 5.572ZM31.375 8.8H8.626A1.63 1.63 0 0 0 7 10.443v18.996c0 .905.72 1.642 1.626 1.642h22.748A1.63 1.63 0 0 0 33 29.44V10.443A1.63 1.63 0 0 0 31.374 8.8Zm-5.981 11.472a.996.996 0 0 0-.743-.36c-.296 0-.504.139-.743.33l-1.085.918c-.227.162-.407.273-.667.273a.96.96 0 0 1-.639-.239 7.911 7.911 0 0 1-.25-.238l-3.121-3.376a1.28 1.28 0 0 0-.97-.437 1.32 1.32 0 0 0-.975.454L8.857 26.45V11.336c.057-.394.365-.68.76-.68h20.76c.4 0 .724.297.748.697l.017 15.11-5.751-6.191h.002Z"/></g></svg>