<svg xmlns="http://www.w3.org/2000/svg" width="16" height="16" fill="none" viewBox="0 0 16 16"><defs><clipPath id="a"><rect width="16" height="16" rx="0"/></clipPath><filter id="c" width="3.926659107208252" height="3.926659107208252" x="0" y="0" color-interpolation-filters="sRGB" filterUnits="objectBoundingBox"><feFlood flood-opacity="0" result="BackgroundImageFix"/><feColorMatrix in="SourceAlpha" values="0 0 0 0 0 0 0 0 0 0 0 0 0 0 0 0 0 0 127 0"/><feOffset dx="0.5" dy="0.5"/><feGaussianBlur/><feColorMatrix values="0 0 0 0 0 0 0 0 0 0 0 0 0 0 0 0 0 0 0.3019607961177826 0"/><feBlend in2="BackgroundImageFix" result="effect1_dropShadow"/><feBlend in="SourceGraphic" in2="effect1_dropShadow" result="shape"/></filter><mask id="b"><rect width="16" height="16" x="0.00000762939453125" y="0.0000457763671875" fill="#FFF" rx="2" style="mix-blend-mode:passthrough"/></mask></defs><g clip-path="url(#a)" style="mix-blend-mode:passthrough"><rect width="16" height="16" fill="#FFF" rx="0"/><g style="mix-blend-mode:passthrough"><rect width="16" height="16" x="0.00000762939453125" y="0.0000457763671875" fill="#86909C" rx="2" style="mix-blend-mode:passthrough"/><g mask="url(#b)" style="mix-blend-mode:passthrough"><path fill="#DBDEE2" d="M0 11.61V16h16v-5.457l-3.138-2.247c-.521-.395-1.372-.395-1.891 0l-4.987 3.781-2.355-1.784c-.522-.395-1.373-.395-1.892 0L0 11.61Z"/><g filter="url(#c)"><path fill="#FFF" d="M2.28 4.001a1.713 1.713 0 1 0 3.428 0 1.713 1.713 0 0 0-3.427 0Z"/></g></g></g></g></svg>