<svg xmlns="http://www.w3.org/2000/svg" width="16" height="16" fill="none" viewBox="0 0 16 16"><defs><clipPath id="a"><rect width="16" height="16" rx="0"/></clipPath><filter id="b" width="10.500000953674316" height="10.500000953674316" x="0" y="0" color-interpolation-filters="sRGB" filterUnits="objectBoundingBox"><feFlood flood-opacity="0" result="BackgroundImageFix"/><feColorMatrix in="SourceAlpha" values="0 0 0 0 0 0 0 0 0 0 0 0 0 0 0 0 0 0 127 0"/><feOffset dx="0.5" dy="0.5"/><feGaussianBlur/><feColorMatrix values="0 0 0 0 0 0 0 0 0 0 0 0 0 0 0 0 0 0 0.3019607961177826 0"/><feBlend in2="BackgroundImageFix" result="effect1_dropShadow"/><feBlend in="SourceGraphic" in2="effect1_dropShadow" result="shape"/></filter></defs><g clip-path="url(#a)" style="mix-blend-mode:passthrough"><rect width="16" height="16" fill="#FFF" rx="0"/><path fill="#86909C" d="M2 0h12a2 2 0 0 1 2 2v12a2 2 0 0 1-2 2H2a2 2 0 0 1-2-2V2a2 2 0 0 1 2-2"/><path fill="#86909C" d="M6.255 12.627a.078.078 0 0 0 .012.077l.926 1.124a.07.07 0 0 0 .057.027.07.07 0 0 0 .056-.027l.926-1.123a.079.079 0 0 0 .013-.077L7.32 10.05a.072.072 0 0 0-.07-.05.072.072 0 0 0-.069.05l-.926 2.577Z"/><g filter="url(#b)"><path fill="#FFF" d="M9 3h3a1 1 0 0 1 1 1v3a1 1 0 0 1-1 1H8V4a1 1 0 0 1 1-1M4 8h4v4a1 1 0 0 1-1 1H4a1 1 0 0 1-1-1V9a1 1 0 0 1 1-1"/></g></g></svg>