<svg xmlns="http://www.w3.org/2000/svg" width="40" height="40" fill="none" viewBox="0 0 40 40"><g style="mix-blend-mode:passthrough"><rect width="40" height="40" fill="#D24625" rx="4" style="mix-blend-mode:passthrough"/><g fill="#FFF" style="mix-blend-mode:passthrough"><path d="M14.718 15.972h-1.976v3.291h1.924c1.166 0 1.99-.449 1.99-1.64 0-1.202-.87-1.651-1.938-1.651Z"/><path d="M33.967 9.879a1.106 1.106 0 0 0-1.228-1.245c-3.398-.066-6.8 0-10.204-.03V6h-1.903C15.756 6.889 10.876 7.738 6 8.611v22.785c4.853.869 9.706 1.699 14.56 2.591h1.975v-2.558h9.549c.543-.033 1.142 0 1.607-.33.372-.589.276-1.316.309-1.975-.033-6.404.023-12.831-.033-19.245Zm-18.984 11.39h-2.241v4.353h-2.523V13.965h4.823c2.477 0 4.158 1.394 4.158 3.61 0 2.532-1.918 3.694-4.217 3.694Zm18.049 9.149H22.535v-2.605h8.27v-1.317h-8.27v-1.613h8.27v-1.317h-8.27v-1.614h8.27v-1.317h-8.27V18.99h8.27v-1.267h-8.27v-1.647h8.27v-1.284h-8.27v-1.63h8.27v-1.3h-8.27v-2.28h10.497v20.836Z"/></g></g></svg>