<svg xmlns="http://www.w3.org/2000/svg" width="200" height="200" class="icon" viewBox="0 0 1024 1024"><path fill="#EBAE44" d="M880.794 323.174H656.23c-28.21 0-51.046 22.477-51.046 50.279v286.976c0 22.272 14.694 41.113 34.97 47.718 8.448 2.765 17.664 1.536 25.19-3.174l87.194-54.63a30.446 30.446 0 0 1 13.363-4.455c6.4-.563 12.902.922 18.585 4.454l87.245 54.682c7.015 4.403 15.616 5.94 23.552 3.635 21.146-6.144 36.557-25.395 36.557-48.23V373.453c0-27.802-22.835-50.279-51.046-50.279z" opacity=".5"/><path fill="#EBAE44" d="M663.86 151.654H214.732c-56.423 0-102.093 45.005-102.093 100.506v543.283c0 44.493 29.286 82.176 69.94 95.437 16.844 5.478 35.327 3.072 50.329-6.298L407.347 775.27a60.109 60.109 0 0 1 63.847 0l174.54 109.364c14.03 8.806 31.181 11.827 47.104 7.219 42.24-12.288 73.063-50.79 73.063-96.41V252.16c0-55.5-45.67-100.506-102.042-100.506zM372.735 322.56h133.12c19.763 0 35.84 16.026 35.84 35.84 0 9.933-3.994 18.842-10.496 25.344s-15.462 10.496-25.344 10.496h-133.12c-19.814 0-35.84-16.026-35.84-35.84s16.026-35.84 35.84-35.84zm200.448 199.424a35.625 35.625 0 0 1-25.344 10.496H332.8c-19.814 0-35.84-16.026-35.84-35.84s16.026-35.84 35.84-35.84h215.04c19.814 0 35.84 16.026 35.84 35.84 0 9.933-3.994 18.842-10.496 25.344z"/></svg>