<svg xmlns="http://www.w3.org/2000/svg" width="200" height="200" class="icon" viewBox="0 0 1024 1024"><path fill="#4B81EE" d="M885.197 433.203h-39.629v-40.96c0-9.625-7.782-17.459-17.408-17.459h-.666c-9.625 0-17.459 7.834-17.459 17.46v40.96h-76.134v-40.96c0-9.626-7.783-17.46-17.46-17.46h-.614c-9.625 0-17.459 7.834-17.459 17.46v40.96H657.51c-28.62 0-51.763 20.48-51.763 45.72v233.37c0 25.293 23.143 45.773 51.763 45.773h227.687c28.62 0 51.763-20.48 51.763-45.773v-233.37c0-25.24-23.142-45.72-51.763-45.72z" opacity=".5"/><path fill="#4B81EE" d="M667.597 241.92h-79.719v-82.38c0-19.406-15.77-35.175-35.174-35.175h-1.28c-19.405 0-35.123 15.77-35.123 35.174v82.381H363.008v-82.38c0-19.406-15.718-35.175-35.123-35.175h-1.28c-19.405 0-35.123 15.77-35.123 35.174v82.381h-82.33c-57.549 0-104.192 41.216-104.192 92.109V803.89c0 50.893 46.643 92.109 104.192 92.109h458.445c57.6 0 104.243-41.216 104.243-92.109V334.03c0-50.893-46.643-92.109-104.243-92.109zm-355.43 461.414c0 19.405-15.77 35.175-35.124 35.175h-1.331c-19.354 0-35.123-15.77-35.123-35.175v-1.28c0-19.404 15.77-35.123 35.123-35.123h1.331c19.354 0 35.123 15.719 35.123 35.123v1.28zm0-120.32c0 19.405-15.77 35.175-35.124 35.175h-1.331c-19.354 0-35.123-15.77-35.123-35.175v-1.28c0-19.404 15.77-35.123 35.123-35.123h1.331c19.354 0 35.123 15.719 35.123 35.123v1.28zm0-120.32c0 19.405-15.77 35.175-35.124 35.175h-1.331c-19.354 0-35.123-15.77-35.123-35.175v-1.28c0-19.404 15.77-35.123 35.123-35.123h1.331c19.354 0 35.123 15.719 35.123 35.123v1.28zm275.967 240.692c0 19.353-15.718 35.123-35.123 35.123H388.198c-19.404 0-35.123-15.77-35.123-35.123v-1.332c0-19.353 15.719-35.123 35.123-35.123h164.813c19.405 0 35.123 15.77 35.123 35.123v1.332zm0-120.32c0 19.353-15.718 35.123-35.123 35.123H388.198c-19.404 0-35.123-15.77-35.123-35.123v-1.332c0-19.353 15.719-35.123 35.123-35.123h164.813c19.405 0 35.123 15.77 35.123 35.123v1.332zm0-120.32c0 19.353-15.718 35.123-35.123 35.123H388.198c-19.404 0-35.123-15.77-35.123-35.123v-1.332c0-19.353 15.719-35.123 35.123-35.123h164.813c19.405 0 35.123 15.77 35.123 35.123v1.332z"/></svg>