<svg xmlns="http://www.w3.org/2000/svg" width="16" height="16" fill="none" viewBox="0 0 16 16"><defs><clipPath id="a"><rect width="16" height="16" rx="0"/></clipPath><filter id="b" width="10.25" height="10.252769470214844" x="0" y="0" color-interpolation-filters="sRGB" filterUnits="objectBoundingBox"><feFlood flood-opacity="0" result="BackgroundImageFix"/><feColorMatrix in="SourceAlpha" values="0 0 0 0 0 0 0 0 0 0 0 0 0 0 0 0 0 0 127 0"/><feOffset dx="0.5" dy="0.5"/><feGaussianBlur/><feColorMatrix values="0 0 0 0 0.5254902243614197 0 0 0 0 0.5647059082984924 0 0 0 0 0.6117647290229797 0 0 0 1 0"/><feBlend in2="BackgroundImageFix" result="effect1_dropShadow"/><feBlend in="SourceGraphic" in2="effect1_dropShadow" result="shape"/></filter></defs><g clip-path="url(#a)" style="mix-blend-mode:passthrough"><rect width="16" height="16" fill="#FFF" rx="0"/><rect width="16" height="16" fill="#B0B7BF" rx="2" style="mix-blend-mode:passthrough"/><g fill="#FFF" filter="url(#b)" style="mix-blend-mode:passthrough"><path d="M7.286 3.143c.4-.044.81.024 1.177.198.361.17.677.443.906.78.254.372.397.825.402 1.281.008.394-.085.789-.266 1.134a2.299 2.299 0 0 1-.857.91 2.191 2.191 0 0 1-2.048.107 2.273 2.273 0 0 1-.868-.711 2.335 2.335 0 0 1-.426-1.008 2.378 2.378 0 0 1 .155-1.316c.159-.376.417-.704.736-.943.318-.24.698-.39 1.089-.432Z"/><path d="M4.754 8.681A4.272 4.272 0 0 1 6.61 7.74c.305.241.608.485.914.725.304-.242.607-.485.913-.725.5.113.98.319 1.412.605.124.082.11.265-.013.346a2.627 2.627 0 0 0-.598.534 2.74 2.74 0 0 0-.588 1.299 2.815 2.815 0 0 0 .204 1.597.09.09 0 0 1-.081.128H4.707c-.861 0-1.584-.707-1.312-1.524l.005-.015a4.628 4.628 0 0 1 1.354-2.029Z"/><path d="M10.9 8.88a2.002 2.002 0 0 0 0 4.002c1.103 0 2-.897 2-2a2.003 2.003 0 0 0-2-2.002Zm.754 2.139h-.612v.618c0 .057-.082.105-.14.105-.058 0-.14-.048-.14-.105v-.618h-.617c-.058 0-.105-.083-.105-.14 0-.059.047-.141.105-.141h.616v-.611c0-.059.083-.106.14-.106.059 0 .141.047.141.106v.61h.612c.06 0 .106.083.106.141 0 .058-.047.14-.106.14Z"/></g></g></svg>