<svg xmlns="http://www.w3.org/2000/svg" width="239.84375" height="200" class="icon" viewBox="0 0 1228 1024"><path d="M1119.391 779.408a174.72 174.72 0 0 0-60.48 24.48 146.88 146.88 0 0 1-66.095 39.936c3.36-22.56 14.544-43.152 31.44-58.368a217.527 217.527 0 0 0 30.096-70.704 64.8 64.8 0 1 1 65.04 64.656zm-118.557-155.184a217.104 217.104 0 0 0-70.465-30.433 64.8 64.8 0 1 1 64.8-64.8 176.658 176.658 0 0 0 24.192 60.673 147.531 147.531 0 0 1 39.552 66.384 97.824 97.824 0 0 1-57.888-31.823h-.24zM894.08 395.84C874.545 232.208 705.105 104 500.098 104 281.697 104 104 249.344 104 428.096a303.024 303.024 0 0 0 141.504 245.952 400.227 400.227 0 0 0 43.2 27.744l-17.567 70.128c6.335 2.976 12.48 6.144 18.959 8.88l88.704-44.352c12.96 3.36 26.593 5.52 40.128 7.824 8.64 1.536 17.28 3.12 26.16 4.175a456.384 456.384 0 0 0 165.6-9.504 319.728 319.728 0 0 0 13.056 70.753 547.445 547.445 0 0 1-123.648 14.448 537.6 537.6 0 0 1-111.071-12.24l-160.947 80.353a35.52 35.52 0 0 1-38.545-4.031 36 36 0 0 1-12.43-36.769l28.799-115.968A375.552 375.552 0 0 1 32 428.096C32 209.312 241.567 32 500.097 32c245.47 0 446.495 160.032 466.079 363.456a315.072 315.072 0 0 0-34.031-3.36c-12.72.48-25.44 1.68-38.066 3.696zM744.56 651.344c21.553-4.32 42.048-12.576 60.48-24.48a146.88 146.88 0 0 1 66.144-39.84 98.256 98.256 0 0 1-31.488 58.272c-14.16 21.6-24.336 45.6-30.095 70.752a64.8 64.8 0 1 1-65.041-64.704zm116.736 155.904c21.408 14.352 45.216 24.72 70.272 30.72a64.8 64.8 0 1 1-64.8 64.8 175.68 175.68 0 0 0-24-60.768 147.408 147.408 0 0 1-39.265-66.576 97.721 97.721 0 0 1 57.793 32.208v-.384z"/></svg>