<svg xmlns="http://www.w3.org/2000/svg" width="400" height="400" fill="none" viewBox="0 0 400 400"><defs><clipPath id="a"><rect width="400" height="400" rx="0"/></clipPath></defs><g clip-path="url(#a)"><rect width="400" height="400" fill="#FFF" rx="0"/><rect width="10.181818008422852" height="10.181818008422852" x="32" y="32" fill="#265626" rx="0"/><rect width="10.181818008422852" height="10.181818008422852" x="42.18181800842285" y="32" fill="#265626" rx="0"/><rect width="10.181818008422852" height="10.181818008422852" x="52.3636360168457" y="32" fill="#265626" rx="0"/><rect width="10.181818008422852" height="10.181818008422852" x="62.545454025268555" y="32" fill="#265626" rx="0"/><rect width="10.181818008422852" height="10.181818008422852" x="72.7272720336914" y="32" fill="#265626" rx="0"/><rect width="10.181818008422852" height="10.181818008422852" x="82.90909194946289" y="32" fill="#265626" rx="0"/><rect width="10.181818008422852" height="10.181818008422852" x="93.09090805053711" y="32" fill="#265626" rx="0"/><rect width="10.181818008422852" height="10.181818008422852" x="133.81818389892578" y="32" fill="#265626" rx="0"/><rect width="10.181818008422852" height="10.181818008422852" x="154.18181610107422" y="32" fill="#265626" rx="0"/><rect width="10.181818008422852" height="10.181818008422852" x="164.36363220214844" y="32" fill="#265626" rx="0"/><rect width="10.181818008422852" height="10.181818008422852" x="174.5454559326172" y="32" fill="#265626" rx="0"/><rect width="10.181818008422852" height="10.181818008422852" x="266.18182373046875" y="32" fill="#265626" rx="0"/><rect width="10.181818008422852" height="10.181818008422852" x="276.36363220214844" y="32" fill="#265626" rx="0"/><rect width="10.181818008422852" height="10.181818008422852" x="296.7272644042969" y="32" fill="#265626" rx="0"/><rect width="10.181818008422852" height="10.181818008422852" x="306.9090881347656" y="32" fill="#265626" rx="0"/><rect width="10.181818008422852" height="10.181818008422852" x="317.0909118652344" y="32" fill="#265626" rx="0"/><rect width="10.181818008422852" height="10.181818008422852" x="327.2727355957031" y="32" fill="#265626" rx="0"/><rect width="10.181818008422852" height="10.181818008422852" x="337.4545593261719" y="32" fill="#265626" rx="0"/><rect width="10.181818008422852" height="10.181818008422852" x="347.6363525390625" y="32" fill="#265626" rx="0"/><rect width="10.181818008422852" height="10.181818008422852" x="357.81817626953125" y="32" fill="#265626" rx="0"/><rect width="10.181818008422852" height="10.181818008422852" x="32" y="42.18181800842285" fill="#265626" rx="0"/><rect width="10.181818008422852" height="10.181818008422852" x="93.09090805053711" y="42.18181800842285" fill="#265626" rx="0"/><rect width="10.181818008422852" height="10.181818008422852" x="113.45454406738281" y="42.18181800842285" fill="#265626" rx="0"/><rect width="10.181818008422852" height="10.181818008422852" x="133.81818389892578" y="42.18181800842285" fill="#265626" rx="0"/><rect width="10.181818008422852" height="10.181818008422852" x="194.90908813476562" y="42.18181800842285" fill="#265626" rx="0"/><rect width="10.181818008422852" height="10.181818008422852" x="205.09091186523438" y="42.18181800842285" fill="#265626" rx="0"/><rect width="10.181818008422852" height="10.181818008422852" x="215.27273559570312" y="42.18181800842285" fill="#265626" rx="0"/><rect width="10.181818008422852" height="10.181818008422852" x="266.18182373046875" y="42.18181800842285" fill="#265626" rx="0"/><rect width="10.181818008422852" height="10.181818008422852" x="276.36363220214844" y="42.18181800842285" fill="#265626" rx="0"/><rect width="10.181818008422852" height="10.181818008422852" x="296.7272644042969" y="42.18181800842285" fill="#265626" rx="0"/><rect width="10.181818008422852" height="10.181818008422852" x="357.81817626953125" y="42.18181800842285" fill="#265626" rx="0"/><rect width="10.181818008422852" height="10.181818008422852" x="32" y="52.3636360168457" fill="#265626" rx="0"/><rect width="10.181818008422852" height="10.181818008422852" x="52.3636360168457" y="52.3636360168457" fill="#265626" rx="0"/><rect width="10.181818008422852" height="10.181818008422852" x="62.545454025268555" y="52.3636360168457" fill="#265626" rx="0"/><rect width="10.181818008422852" height="10.181818008422852" x="72.7272720336914" y="52.3636360168457" fill="#265626" rx="0"/><rect width="10.181818008422852" height="10.181818008422852" x="93.09090805053711" y="52.3636360168457" fill="#265626" rx="0"/><rect width="10.181818008422852" height="10.181818008422852" x="154.18181610107422" y="52.3636360168457" fill="#265626" rx="0"/><rect width="10.181818008422852" height="10.181818008422852" x="174.5454559326172" y="52.3636360168457" fill="#265626" rx="0"/><rect width="10.181818008422852" height="10.181818008422852" x="215.27273559570312" y="52.3636360168457" fill="#265626" rx="0"/><rect width="10.181818008422852" height="10.181818008422852" x="245.81817626953125" y="52.3636360168457" fill="#265626" rx="0"/><rect width="10.181818008422852" height="10.181818008422852" x="276.36363220214844" y="52.3636360168457" fill="#265626" rx="0"/><rect width="10.181818008422852" height="10.181818008422852" x="296.7272644042969" y="52.3636360168457" fill="#265626" rx="0"/><rect width="10.181818008422852" height="10.181818008422852" x="317.0909118652344" y="52.3636360168457" fill="#265626" rx="0"/><rect width="10.181818008422852" height="10.181818008422852" x="327.2727355957031" y="52.3636360168457" fill="#265626" rx="0"/><rect width="10.181818008422852" height="10.181818008422852" x="337.4545593261719" y="52.3636360168457" fill="#265626" rx="0"/><rect width="10.181818008422852" height="10.181818008422852" x="357.81817626953125" y="52.3636360168457" fill="#265626" rx="0"/><rect width="10.181818008422852" height="10.181818008422852" x="32" y="62.545454025268555" fill="#265626" rx="0"/><rect width="10.181818008422852" height="10.181818008422852" x="52.3636360168457" y="62.545454025268555" fill="#265626" rx="0"/><rect width="10.181818008422852" height="10.181818008422852" x="62.545454025268555" y="62.545454025268555" fill="#265626" rx="0"/><rect width="10.181818008422852" height="10.181818008422852" x="72.7272720336914" y="62.545454025268555" fill="#265626" rx="0"/><rect width="10.181818008422852" height="10.181818008422852" x="93.09090805053711" y="62.545454025268555" fill="#265626" rx="0"/><rect width="10.181818008422852" height="10.181818008422852" x="113.45454406738281" y="62.545454025268555" fill="#265626" rx="0"/><rect width="10.181818008422852" height="10.181818008422852" x="123.63636779785156" y="62.545454025268555" fill="#265626" rx="0"/><rect width="10.181818008422852" height="10.181818008422852" x="133.81818389892578" y="62.545454025268555" fill="#265626" rx="0"/><rect width="10.181818008422852" height="10.181818008422852" x="154.18181610107422" y="62.545454025268555" fill="#265626" rx="0"/><rect width="10.181818008422852" height="10.181818008422852" x="164.36363220214844" y="62.545454025268555" fill="#265626" rx="0"/><rect width="10.181818008422852" height="10.181818008422852" x="174.5454559326172" y="62.545454025268555" fill="#265626" rx="0"/><rect width="10.181818008422852" height="10.181818008422852" x="215.27273559570312" y="62.545454025268555" fill="#265626" rx="0"/><rect width="10.181818008422852" height="10.181818008422852" x="225.4545440673828" y="62.545454025268555" fill="#265626" rx="0"/><rect width="10.181818008422852" height="10.181818008422852" x="245.81817626953125" y="62.545454025268555" fill="#265626" rx="0"/><rect width="10.181818008422852" height="10.181818008422852" x="256" y="62.545454025268555" fill="#265626" rx="0"/><rect width="10.181818008422852" height="10.181818008422852" x="266.18182373046875" y="62.545454025268555" fill="#265626" rx="0"/><rect width="10.181818008422852" height="10.181818008422852" x="276.36363220214844" y="62.545454025268555" fill="#265626" rx="0"/><rect width="10.181818008422852" height="10.181818008422852" x="296.7272644042969" y="62.545454025268555" fill="#265626" rx="0"/><rect width="10.181818008422852" height="10.181818008422852" x="317.0909118652344" y="62.545454025268555" fill="#265626" rx="0"/><rect width="10.181818008422852" height="10.181818008422852" x="327.2727355957031" y="62.545454025268555" fill="#265626" rx="0"/><rect width="10.181818008422852" height="10.181818008422852" x="337.4545593261719" y="62.545454025268555" fill="#265626" rx="0"/><rect width="10.181818008422852" height="10.181818008422852" x="357.81817626953125" y="62.545454025268555" fill="#265626" rx="0"/><rect width="10.181818008422852" height="10.181818008422852" x="32" y="72.7272720336914" fill="#265626" rx="0"/><rect width="10.181818008422852" height="10.181818008422852" x="52.3636360168457" y="72.7272720336914" fill="#265626" rx="0"/><rect width="10.181818008422852" height="10.181818008422852" x="62.545454025268555" y="72.7272720336914" fill="#265626" rx="0"/><rect width="10.181818008422852" height="10.181818008422852" x="72.7272720336914" y="72.7272720336914" fill="#265626" rx="0"/><rect width="10.181818008422852" height="10.181818008422852" x="93.09090805053711" y="72.7272720336914" fill="#265626" rx="0"/><rect width="10.181818008422852" height="10.181818008422852" x="123.63636779785156" y="72.7272720336914" fill="#265626" rx="0"/><rect width="10.181818008422852" height="10.181818008422852" x="164.36363220214844" y="72.7272720336914" fill="#265626" rx="0"/><rect width="10.181818008422852" height="10.181818008422852" x="184.72727966308594" y="72.7272720336914" fill="#265626" rx="0"/><rect width="10.181818008422852" height="10.181818008422852" x="194.90908813476562" y="72.7272720336914" fill="#265626" rx="0"/><rect width="10.181818008422852" height="10.181818008422852" x="215.27273559570312" y="72.7272720336914" fill="#265626" rx="0"/><rect width="10.181818008422852" height="10.181818008422852" x="256" y="72.7272720336914" fill="#265626" rx="0"/><rect width="10.181818008422852" height="10.181818008422852" x="266.18182373046875" y="72.7272720336914" fill="#265626" rx="0"/><rect width="10.181818008422852" height="10.181818008422852" x="296.7272644042969" y="72.7272720336914" fill="#265626" rx="0"/><rect width="10.181818008422852" height="10.181818008422852" x="317.0909118652344" y="72.7272720336914" fill="#265626" rx="0"/><rect width="10.181818008422852" height="10.181818008422852" x="327.2727355957031" y="72.7272720336914" fill="#265626" rx="0"/><rect width="10.181818008422852" height="10.181818008422852" x="337.4545593261719" y="72.7272720336914" fill="#265626" rx="0"/><rect width="10.181818008422852" height="10.181818008422852" x="357.81817626953125" y="72.7272720336914" fill="#265626" rx="0"/><rect width="10.181818008422852" height="10.181818008422852" x="32" y="82.90909194946289" fill="#265626" rx="0"/><rect width="10.181818008422852" height="10.181818008422852" x="93.09090805053711" y="82.90909194946289" fill="#265626" rx="0"/><rect width="10.181818008422852" height="10.181818008422852" x="113.45454406738281" y="82.90909194946289" fill="#265626" rx="0"/><rect width="10.181818008422852" height="10.181818008422852" x="123.63636779785156" y="82.90909194946289" fill="#265626" rx="0"/><rect width="10.181818008422852" height="10.181818008422852" x="144" y="82.90909194946289" fill="#265626" rx="0"/><rect width="10.181818008422852" height="10.181818008422852" x="154.18181610107422" y="82.90909194946289" fill="#265626" rx="0"/><rect width="10.181818008422852" height="10.181818008422852" x="164.36363220214844" y="82.90909194946289" fill="#265626" rx="0"/><rect width="10.181818008422852" height="10.181818008422852" x="174.5454559326172" y="82.90909194946289" fill="#265626" rx="0"/><rect width="10.181818008422852" height="10.181818008422852" x="184.72727966308594" y="82.90909194946289" fill="#265626" rx="0"/><rect width="10.181818008422852" height="10.181818008422852" x="205.09091186523438" y="82.90909194946289" fill="#265626" rx="0"/><rect width="10.181818008422852" height="10.181818008422852" x="215.27273559570312" y="82.90909194946289" fill="#265626" rx="0"/><rect width="10.181818008422852" height="10.181818008422852" x="256" y="82.90909194946289" fill="#265626" rx="0"/><rect width="10.181818008422852" height="10.181818008422852" x="276.36363220214844" y="82.90909194946289" fill="#265626" rx="0"/><rect width="10.181818008422852" height="10.181818008422852" x="296.7272644042969" y="82.90909194946289" fill="#265626" rx="0"/><rect width="10.181818008422852" height="10.181818008422852" x="357.81817626953125" y="82.90909194946289" fill="#265626" rx="0"/><rect width="10.181818008422852" height="10.181818008422852" x="32" y="93.09090805053711" fill="#265626" rx="0"/><rect width="10.181818008422852" height="10.181818008422852" x="42.18181800842285" y="93.09090805053711" fill="#265626" rx="0"/><rect width="10.181818008422852" height="10.181818008422852" x="52.3636360168457" y="93.09090805053711" fill="#265626" rx="0"/><rect width="10.181818008422852" height="10.181818008422852" x="62.545454025268555" y="93.09090805053711" fill="#265626" rx="0"/><rect width="10.181818008422852" height="10.181818008422852" x="72.7272720336914" y="93.09090805053711" fill="#265626" rx="0"/><rect width="10.181818008422852" height="10.181818008422852" x="82.90909194946289" y="93.09090805053711" fill="#265626" rx="0"/><rect width="10.181818008422852" height="10.181818008422852" x="93.09090805053711" y="93.09090805053711" fill="#265626" rx="0"/><rect width="10.181818008422852" height="10.181818008422852" x="113.45454406738281" y="93.09090805053711" fill="#265626" rx="0"/><rect width="10.181818008422852" height="10.181818008422852" x="133.81818389892578" y="93.09090805053711" fill="#265626" rx="0"/><rect width="10.181818008422852" height="10.181818008422852" x="154.18181610107422" y="93.09090805053711" fill="#265626" rx="0"/><rect width="10.181818008422852" height="10.181818008422852" x="174.5454559326172" y="93.09090805053711" fill="#265626" rx="0"/><rect width="10.181818008422852" height="10.181818008422852" x="194.90908813476562" y="93.09090805053711" fill="#265626" rx="0"/><rect width="10.181818008422852" height="10.181818008422852" x="215.27273559570312" y="93.09090805053711" fill="#265626" rx="0"/><rect width="10.181818008422852" height="10.181818008422852" x="235.63636779785156" y="93.09090805053711" fill="#265626" rx="0"/><rect width="10.181818008422852" height="10.181818008422852" x="256" y="93.09090805053711" fill="#265626" rx="0"/><rect width="10.181818008422852" height="10.181818008422852" x="276.36363220214844" y="93.09090805053711" fill="#265626" rx="0"/><rect width="10.181818008422852" height="10.181818008422852" x="296.7272644042969" y="93.09090805053711" fill="#265626" rx="0"/><rect width="10.181818008422852" height="10.181818008422852" x="306.9090881347656" y="93.09090805053711" fill="#265626" rx="0"/><rect width="10.181818008422852" height="10.181818008422852" x="317.0909118652344" y="93.09090805053711" fill="#265626" rx="0"/><rect width="10.181818008422852" height="10.181818008422852" x="327.2727355957031" y="93.09090805053711" fill="#265626" rx="0"/><rect width="10.181818008422852" height="10.181818008422852" x="337.4545593261719" y="93.09090805053711" fill="#265626" rx="0"/><rect width="10.181818008422852" height="10.181818008422852" x="347.6363525390625" y="93.09090805053711" fill="#265626" rx="0"/><rect width="10.181818008422852" height="10.181818008422852" x="357.81817626953125" y="93.09090805053711" fill="#265626" rx="0"/><rect width="10.181818008422852" height="10.181818008422852" x="123.63636779785156" y="103.2727279663086" fill="#265626" rx="0"/><rect width="10.181818008422852" height="10.181818008422852" x="133.81818389892578" y="103.2727279663086" fill="#265626" rx="0"/><rect width="10.181818008422852" height="10.181818008422852" x="144" y="103.2727279663086" fill="#265626" rx="0"/><rect width="10.181818008422852" height="10.181818008422852" x="194.90908813476562" y="103.2727279663086" fill="#265626" rx="0"/><rect width="10.181818008422852" height="10.181818008422852" x="215.27273559570312" y="103.2727279663086" fill="#265626" rx="0"/><rect width="10.181818008422852" height="10.181818008422852" x="225.4545440673828" y="103.2727279663086" fill="#265626" rx="0"/><rect width="10.181818008422852" height="10.181818008422852" x="245.81817626953125" y="103.2727279663086" fill="#265626" rx="0"/><rect width="10.181818008422852" height="10.181818008422852" x="266.18182373046875" y="103.2727279663086" fill="#265626" rx="0"/><rect width="10.181818008422852" height="10.181818008422852" x="32" y="113.45454406738281" fill="#265626" rx="0"/><rect width="10.181818008422852" height="10.181818008422852" x="42.18181800842285" y="113.45454406738281" fill="#265626" rx="0"/><rect width="10.181818008422852" height="10.181818008422852" x="52.3636360168457" y="113.45454406738281" fill="#265626" rx="0"/><rect width="10.181818008422852" height="10.181818008422852" x="62.545454025268555" y="113.45454406738281" fill="#265626" rx="0"/><rect width="10.181818008422852" height="10.181818008422852" x="72.7272720336914" y="113.45454406738281" fill="#265626" rx="0"/><rect width="10.181818008422852" height="10.181818008422852" x="93.09090805053711" y="113.45454406738281" fill="#265626" rx="0"/><rect width="10.181818008422852" height="10.181818008422852" x="103.2727279663086" y="113.45454406738281" fill="#265626" rx="0"/><rect width="10.181818008422852" height="10.181818008422852" x="113.45454406738281" y="113.45454406738281" fill="#265626" rx="0"/><rect width="10.181818008422852" height="10.181818008422852" x="123.63636779785156" y="113.45454406738281" fill="#265626" rx="0"/><rect width="10.181818008422852" height="10.181818008422852" x="144" y="113.45454406738281" fill="#265626" rx="0"/><rect width="10.181818008422852" height="10.181818008422852" x="174.5454559326172" y="113.45454406738281" fill="#265626" rx="0"/><rect width="10.181818008422852" height="10.181818008422852" x="215.27273559570312" y="113.45454406738281" fill="#265626" rx="0"/><rect width="10.181818008422852" height="10.181818008422852" x="225.4545440673828" y="113.45454406738281" fill="#265626" rx="0"/><rect width="10.181818008422852" height="10.181818008422852" x="235.63636779785156" y="113.45454406738281" fill="#265626" rx="0"/><rect width="10.181818008422852" height="10.181818008422852" x="245.81817626953125" y="113.45454406738281" fill="#265626" rx="0"/><rect width="10.181818008422852" height="10.181818008422852" x="256" y="113.45454406738281" fill="#265626" rx="0"/><rect width="10.181818008422852" height="10.181818008422852" x="266.18182373046875" y="113.45454406738281" fill="#265626" rx="0"/><rect width="10.181818008422852" height="10.181818008422852" x="286.5454559326172" y="113.45454406738281" fill="#265626" rx="0"/><rect width="10.181818008422852" height="10.181818008422852" x="306.9090881347656" y="113.45454406738281" fill="#265626" rx="0"/><rect width="10.181818008422852" height="10.181818008422852" x="327.2727355957031" y="113.45454406738281" fill="#265626" rx="0"/><rect width="10.181818008422852" height="10.181818008422852" x="347.6363525390625" y="113.45454406738281" fill="#265626" rx="0"/><rect width="10.181818008422852" height="10.181818008422852" x="42.18181800842285" y="123.63636779785156" fill="#265626" rx="0"/><rect width="10.181818008422852" height="10.181818008422852" x="52.3636360168457" y="123.63636779785156" fill="#265626" rx="0"/><rect width="10.181818008422852" height="10.181818008422852" x="82.90909194946289" y="123.63636779785156" fill="#265626" rx="0"/><rect width="10.181818008422852" height="10.181818008422852" x="113.45454406738281" y="123.63636779785156" fill="#265626" rx="0"/><rect width="10.181818008422852" height="10.181818008422852" x="133.81818389892578" y="123.63636779785156" fill="#265626" rx="0"/><rect width="10.181818008422852" height="10.181818008422852" x="154.18181610107422" y="123.63636779785156" fill="#265626" rx="0"/><rect width="10.181818008422852" height="10.181818008422852" x="164.36363220214844" y="123.63636779785156" fill="#265626" rx="0"/><rect width="10.181818008422852" height="10.181818008422852" x="194.90908813476562" y="123.63636779785156" fill="#265626" rx="0"/><rect width="10.181818008422852" height="10.181818008422852" x="205.09091186523438" y="123.63636779785156" fill="#265626" rx="0"/><rect width="10.181818008422852" height="10.181818008422852" x="215.27273559570312" y="123.63636779785156" fill="#265626" rx="0"/><rect width="10.181818008422852" height="10.181818008422852" x="225.4545440673828" y="123.63636779785156" fill="#265626" rx="0"/><rect width="10.181818008422852" height="10.181818008422852" x="235.63636779785156" y="123.63636779785156" fill="#265626" rx="0"/><rect width="10.181818008422852" height="10.181818008422852" x="256" y="123.63636779785156" fill="#265626" rx="0"/><rect width="10.181818008422852" height="10.181818008422852" x="266.18182373046875" y="123.63636779785156" fill="#265626" rx="0"/><rect width="10.181818008422852" height="10.181818008422852" x="286.5454559326172" y="123.63636779785156" fill="#265626" rx="0"/><rect width="10.181818008422852" height="10.181818008422852" x="296.7272644042969" y="123.63636779785156" fill="#265626" rx="0"/><rect width="10.181818008422852" height="10.181818008422852" x="306.9090881347656" y="123.63636779785156" fill="#265626" rx="0"/><rect width="10.181818008422852" height="10.181818008422852" x="317.0909118652344" y="123.63636779785156" fill="#265626" rx="0"/><rect width="10.181818008422852" height="10.181818008422852" x="327.2727355957031" y="123.63636779785156" fill="#265626" rx="0"/><rect width="10.181818008422852" height="10.181818008422852" x="42.18181800842285" y="133.81818389892578" fill="#265626" rx="0"/><rect width="10.181818008422852" height="10.181818008422852" x="52.3636360168457" y="133.81818389892578" fill="#265626" rx="0"/><rect width="10.181818008422852" height="10.181818008422852" x="62.545454025268555" y="133.81818389892578" fill="#265626" rx="0"/><rect width="10.181818008422852" height="10.181818008422852" x="72.7272720336914" y="133.81818389892578" fill="#265626" rx="0"/><rect width="10.181818008422852" height="10.181818008422852" x="82.90909194946289" y="133.81818389892578" fill="#265626" rx="0"/><rect width="10.181818008422852" height="10.181818008422852" x="93.09090805053711" y="133.81818389892578" fill="#265626" rx="0"/><rect width="10.181818008422852" height="10.181818008422852" x="113.45454406738281" y="133.81818389892578" fill="#265626" rx="0"/><rect width="10.181818008422852" height="10.181818008422852" x="133.81818389892578" y="133.81818389892578" fill="#265626" rx="0"/><rect width="10.181818008422852" height="10.181818008422852" x="164.36363220214844" y="133.81818389892578" fill="#265626" rx="0"/><rect width="10.181818008422852" height="10.181818008422852" x="184.72727966308594" y="133.81818389892578" fill="#265626" rx="0"/><rect width="10.181818008422852" height="10.181818008422852" x="194.90908813476562" y="133.81818389892578" fill="#265626" rx="0"/><rect width="10.181818008422852" height="10.181818008422852" x="205.09091186523438" y="133.81818389892578" fill="#265626" rx="0"/><rect width="10.181818008422852" height="10.181818008422852" x="245.81817626953125" y="133.81818389892578" fill="#265626" rx="0"/><rect width="10.181818008422852" height="10.181818008422852" x="296.7272644042969" y="133.81818389892578" fill="#265626" rx="0"/><rect width="10.181818008422852" height="10.181818008422852" x="317.0909118652344" y="133.81818389892578" fill="#265626" rx="0"/><rect width="10.181818008422852" height="10.181818008422852" x="347.6363525390625" y="133.81818389892578" fill="#265626" rx="0"/><rect width="10.181818008422852" height="10.181818008422852" x="62.545454025268555" y="144" fill="#265626" rx="0"/><rect width="10.181818008422852" height="10.181818008422852" x="82.90909194946289" y="144" fill="#265626" rx="0"/><rect width="10.181818008422852" height="10.181818008422852" x="154.18181610107422" y="144" fill="#265626" rx="0"/><rect width="10.181818008422852" height="10.181818008422852" x="164.36363220214844" y="144" fill="#265626" rx="0"/><rect width="10.181818008422852" height="10.181818008422852" x="174.5454559326172" y="144" fill="#265626" rx="0"/><rect width="10.181818008422852" height="10.181818008422852" x="215.27273559570312" y="144" fill="#265626" rx="0"/><rect width="10.181818008422852" height="10.181818008422852" x="225.4545440673828" y="144" fill="#265626" rx="0"/><rect width="10.181818008422852" height="10.181818008422852" x="235.63636779785156" y="144" fill="#265626" rx="0"/><rect width="10.181818008422852" height="10.181818008422852" x="266.18182373046875" y="144" fill="#265626" rx="0"/><rect width="10.181818008422852" height="10.181818008422852" x="276.36363220214844" y="144" fill="#265626" rx="0"/><rect width="10.181818008422852" height="10.181818008422852" x="306.9090881347656" y="144" fill="#265626" rx="0"/><rect width="10.181818008422852" height="10.181818008422852" x="317.0909118652344" y="144" fill="#265626" rx="0"/><rect width="10.181818008422852" height="10.181818008422852" x="327.2727355957031" y="144" fill="#265626" rx="0"/><rect width="10.181818008422852" height="10.181818008422852" x="337.4545593261719" y="144" fill="#265626" rx="0"/><rect width="10.181818008422852" height="10.181818008422852" x="357.81817626953125" y="144" fill="#265626" rx="0"/><rect width="10.181818008422852" height="10.181818008422852" x="32" y="154.18181610107422" fill="#265626" rx="0"/><rect width="10.181818008422852" height="10.181818008422852" x="52.3636360168457" y="154.18181610107422" fill="#265626" rx="0"/><rect width="10.181818008422852" height="10.181818008422852" x="62.545454025268555" y="154.18181610107422" fill="#265626" rx="0"/><rect width="10.181818008422852" height="10.181818008422852" x="72.7272720336914" y="154.18181610107422" fill="#265626" rx="0"/><rect width="10.181818008422852" height="10.181818008422852" x="82.90909194946289" y="154.18181610107422" fill="#265626" rx="0"/><rect width="10.181818008422852" height="10.181818008422852" x="93.09090805053711" y="154.18181610107422" fill="#265626" rx="0"/><rect width="10.181818008422852" height="10.181818008422852" x="113.45454406738281" y="154.18181610107422" fill="#265626" rx="0"/><rect width="10.181818008422852" height="10.181818008422852" x="123.63636779785156" y="154.18181610107422" fill="#265626" rx="0"/><rect width="10.181818008422852" height="10.181818008422852" x="133.81818389892578" y="154.18181610107422" fill="#265626" rx="0"/><rect width="10.181818008422852" height="10.181818008422852" x="154.18181610107422" y="154.18181610107422" fill="#265626" rx="0"/><rect width="10.181818008422852" height="10.181818008422852" x="174.5454559326172" y="154.18181610107422" fill="#265626" rx="0"/><rect width="10.181818008422852" height="10.181818008422852" x="194.90908813476562" y="154.18181610107422" fill="#265626" rx="0"/><rect width="10.181818008422852" height="10.181818008422852" x="225.4545440673828" y="154.18181610107422" fill="#265626" rx="0"/><rect width="10.181818008422852" height="10.181818008422852" x="245.81817626953125" y="154.18181610107422" fill="#265626" rx="0"/><rect width="10.181818008422852" height="10.181818008422852" x="256" y="154.18181610107422" fill="#265626" rx="0"/><rect width="10.181818008422852" height="10.181818008422852" x="266.18182373046875" y="154.18181610107422" fill="#265626" rx="0"/><rect width="10.181818008422852" height="10.181818008422852" x="286.5454559326172" y="154.18181610107422" fill="#265626" rx="0"/><rect width="10.181818008422852" height="10.181818008422852" x="306.9090881347656" y="154.18181610107422" fill="#265626" rx="0"/><rect width="10.181818008422852" height="10.181818008422852" x="337.4545593261719" y="154.18181610107422" fill="#265626" rx="0"/><rect width="10.181818008422852" height="10.181818008422852" x="357.81817626953125" y="154.18181610107422" fill="#265626" rx="0"/><rect width="10.181818008422852" height="10.181818008422852" x="82.90909194946289" y="164.36363220214844" fill="#265626" rx="0"/><rect width="10.181818008422852" height="10.181818008422852" x="103.2727279663086" y="164.36363220214844" fill="#265626" rx="0"/><rect width="10.181818008422852" height="10.181818008422852" x="113.45454406738281" y="164.36363220214844" fill="#265626" rx="0"/><rect width="10.181818008422852" height="10.181818008422852" x="164.36363220214844" y="164.36363220214844" fill="#265626" rx="0"/><rect width="10.181818008422852" height="10.181818008422852" x="174.5454559326172" y="164.36363220214844" fill="#265626" rx="0"/><rect width="10.181818008422852" height="10.181818008422852" x="184.72727966308594" y="164.36363220214844" fill="#265626" rx="0"/><rect width="10.181818008422852" height="10.181818008422852" x="194.90908813476562" y="164.36363220214844" fill="#265626" rx="0"/><rect width="10.181818008422852" height="10.181818008422852" x="205.09091186523438" y="164.36363220214844" fill="#265626" rx="0"/><rect width="10.181818008422852" height="10.181818008422852" x="215.27273559570312" y="164.36363220214844" fill="#265626" rx="0"/><rect width="10.181818008422852" height="10.181818008422852" x="235.63636779785156" y="164.36363220214844" fill="#265626" rx="0"/><rect width="10.181818008422852" height="10.181818008422852" x="256" y="164.36363220214844" fill="#265626" rx="0"/><rect width="10.181818008422852" height="10.181818008422852" x="286.5454559326172" y="164.36363220214844" fill="#265626" rx="0"/><rect width="10.181818008422852" height="10.181818008422852" x="347.6363525390625" y="164.36363220214844" fill="#265626" rx="0"/><rect width="10.181818008422852" height="10.181818008422852" x="62.545454025268555" y="174.5454559326172" fill="#265626" rx="0"/><rect width="10.181818008422852" height="10.181818008422852" x="72.7272720336914" y="174.5454559326172" fill="#265626" rx="0"/><rect width="10.181818008422852" height="10.181818008422852" x="82.90909194946289" y="174.5454559326172" fill="#265626" rx="0"/><rect width="10.181818008422852" height="10.181818008422852" x="93.09090805053711" y="174.5454559326172" fill="#265626" rx="0"/><rect width="10.181818008422852" height="10.181818008422852" x="113.45454406738281" y="174.5454559326172" fill="#265626" rx="0"/><rect width="10.181818008422852" height="10.181818008422852" x="144" y="174.5454559326172" fill="#265626" rx="0"/><rect width="10.181818008422852" height="10.181818008422852" x="154.18181610107422" y="174.5454559326172" fill="#265626" rx="0"/><rect width="10.181818008422852" height="10.181818008422852" x="184.72727966308594" y="174.5454559326172" fill="#265626" rx="0"/><rect width="10.181818008422852" height="10.181818008422852" x="205.09091186523438" y="174.5454559326172" fill="#265626" rx="0"/><rect width="10.181818008422852" height="10.181818008422852" x="215.27273559570312" y="174.5454559326172" fill="#265626" rx="0"/><rect width="10.181818008422852" height="10.181818008422852" x="235.63636779785156" y="174.5454559326172" fill="#265626" rx="0"/><rect width="10.181818008422852" height="10.181818008422852" x="286.5454559326172" y="174.5454559326172" fill="#265626" rx="0"/><rect width="10.181818008422852" height="10.181818008422852" x="296.7272644042969" y="174.5454559326172" fill="#265626" rx="0"/><rect width="10.181818008422852" height="10.181818008422852" x="306.9090881347656" y="174.5454559326172" fill="#265626" rx="0"/><rect width="10.181818008422852" height="10.181818008422852" x="317.0909118652344" y="174.5454559326172" fill="#265626" rx="0"/><rect width="10.181818008422852" height="10.181818008422852" x="327.2727355957031" y="174.5454559326172" fill="#265626" rx="0"/><rect width="10.181818008422852" height="10.181818008422852" x="347.6363525390625" y="174.5454559326172" fill="#265626" rx="0"/><rect width="10.181818008422852" height="10.181818008422852" x="357.81817626953125" y="174.5454559326172" fill="#265626" rx="0"/><rect width="10.181818008422852" height="10.181818008422852" x="52.3636360168457" y="184.72727966308594" fill="#265626" rx="0"/><rect width="10.181818008422852" height="10.181818008422852" x="62.545454025268555" y="184.72727966308594" fill="#265626" rx="0"/><rect width="10.181818008422852" height="10.181818008422852" x="72.7272720336914" y="184.72727966308594" fill="#265626" rx="0"/><rect width="10.181818008422852" height="10.181818008422852" x="82.90909194946289" y="184.72727966308594" fill="#265626" rx="0"/><rect width="10.181818008422852" height="10.181818008422852" x="113.45454406738281" y="184.72727966308594" fill="#265626" rx="0"/><rect width="10.181818008422852" height="10.181818008422852" x="144" y="184.72727966308594" fill="#265626" rx="0"/><rect width="10.181818008422852" height="10.181818008422852" x="164.36363220214844" y="184.72727966308594" fill="#265626" rx="0"/><rect width="10.181818008422852" height="10.181818008422852" x="174.5454559326172" y="184.72727966308594" fill="#265626" rx="0"/><rect width="10.181818008422852" height="10.181818008422852" x="184.72727966308594" y="184.72727966308594" fill="#265626" rx="0"/><rect width="10.181818008422852" height="10.181818008422852" x="205.09091186523438" y="184.72727966308594" fill="#265626" rx="0"/><rect width="10.181818008422852" height="10.181818008422852" x="225.4545440673828" y="184.72727966308594" fill="#265626" rx="0"/><rect width="10.181818008422852" height="10.181818008422852" x="245.81817626953125" y="184.72727966308594" fill="#265626" rx="0"/><rect width="10.181818008422852" height="10.181818008422852" x="266.18182373046875" y="184.72727966308594" fill="#265626" rx="0"/><rect width="10.181818008422852" height="10.181818008422852" x="276.36363220214844" y="184.72727966308594" fill="#265626" rx="0"/><rect width="10.181818008422852" height="10.181818008422852" x="296.7272644042969" y="184.72727966308594" fill="#265626" rx="0"/><rect width="10.181818008422852" height="10.181818008422852" x="317.0909118652344" y="184.72727966308594" fill="#265626" rx="0"/><rect width="10.181818008422852" height="10.181818008422852" x="357.81817626953125" y="184.72727966308594" fill="#265626" rx="0"/><rect width="10.181818008422852" height="10.181818008422852" x="32" y="194.90908813476562" fill="#265626" rx="0"/><rect width="10.181818008422852" height="10.181818008422852" x="93.09090805053711" y="194.90908813476562" fill="#265626" rx="0"/><rect width="10.181818008422852" height="10.181818008422852" x="103.2727279663086" y="194.90908813476562" fill="#265626" rx="0"/><rect width="10.181818008422852" height="10.181818008422852" x="113.45454406738281" y="194.90908813476562" fill="#265626" rx="0"/><rect width="10.181818008422852" height="10.181818008422852" x="144" y="194.90908813476562" fill="#265626" rx="0"/><rect width="10.181818008422852" height="10.181818008422852" x="174.5454559326172" y="194.90908813476562" fill="#265626" rx="0"/><rect width="10.181818008422852" height="10.181818008422852" x="194.90908813476562" y="194.90908813476562" fill="#265626" rx="0"/><rect width="10.181818008422852" height="10.181818008422852" x="215.27273559570312" y="194.90908813476562" fill="#265626" rx="0"/><rect width="10.181818008422852" height="10.181818008422852" x="225.4545440673828" y="194.90908813476562" fill="#265626" rx="0"/><rect width="10.181818008422852" height="10.181818008422852" x="235.63636779785156" y="194.90908813476562" fill="#265626" rx="0"/><rect width="10.181818008422852" height="10.181818008422852" x="245.81817626953125" y="194.90908813476562" fill="#265626" rx="0"/><rect width="10.181818008422852" height="10.181818008422852" x="266.18182373046875" y="194.90908813476562" fill="#265626" rx="0"/><rect width="10.181818008422852" height="10.181818008422852" x="276.36363220214844" y="194.90908813476562" fill="#265626" rx="0"/><rect width="10.181818008422852" height="10.181818008422852" x="286.5454559326172" y="194.90908813476562" fill="#265626" rx="0"/><rect width="10.181818008422852" height="10.181818008422852" x="357.81817626953125" y="194.90908813476562" fill="#265626" rx="0"/><rect width="10.181818008422852" height="10.181818008422852" x="32" y="205.09091186523438" fill="#265626" rx="0"/><rect width="10.181818008422852" height="10.181818008422852" x="42.18181800842285" y="205.09091186523438" fill="#265626" rx="0"/><rect width="10.181818008422852" height="10.181818008422852" x="52.3636360168457" y="205.09091186523438" fill="#265626" rx="0"/><rect width="10.181818008422852" height="10.181818008422852" x="82.90909194946289" y="205.09091186523438" fill="#265626" rx="0"/><rect width="10.181818008422852" height="10.181818008422852" x="113.45454406738281" y="205.09091186523438" fill="#265626" rx="0"/><rect width="10.181818008422852" height="10.181818008422852" x="123.63636779785156" y="205.09091186523438" fill="#265626" rx="0"/><rect width="10.181818008422852" height="10.181818008422852" x="133.81818389892578" y="205.09091186523438" fill="#265626" rx="0"/><rect width="10.181818008422852" height="10.181818008422852" x="154.18181610107422" y="205.09091186523438" fill="#265626" rx="0"/><rect width="10.181818008422852" height="10.181818008422852" x="164.36363220214844" y="205.09091186523438" fill="#265626" rx="0"/><rect width="10.181818008422852" height="10.181818008422852" x="184.72727966308594" y="205.09091186523438" fill="#265626" rx="0"/><rect width="10.181818008422852" height="10.181818008422852" x="194.90908813476562" y="205.09091186523438" fill="#265626" rx="0"/><rect width="10.181818008422852" height="10.181818008422852" x="205.09091186523438" y="205.09091186523438" fill="#265626" rx="0"/><rect width="10.181818008422852" height="10.181818008422852" x="215.27273559570312" y="205.09091186523438" fill="#265626" rx="0"/><rect width="10.181818008422852" height="10.181818008422852" x="225.4545440673828" y="205.09091186523438" fill="#265626" rx="0"/><rect width="10.181818008422852" height="10.181818008422852" x="266.18182373046875" y="205.09091186523438" fill="#265626" rx="0"/><rect width="10.181818008422852" height="10.181818008422852" x="306.9090881347656" y="205.09091186523438" fill="#265626" rx="0"/><rect width="10.181818008422852" height="10.181818008422852" x="357.81817626953125" y="205.09091186523438" fill="#265626" rx="0"/><rect width="10.181818008422852" height="10.181818008422852" x="62.545454025268555" y="215.27273559570312" fill="#265626" rx="0"/><rect width="10.181818008422852" height="10.181818008422852" x="82.90909194946289" y="215.27273559570312" fill="#265626" rx="0"/><rect width="10.181818008422852" height="10.181818008422852" x="93.09090805053711" y="215.27273559570312" fill="#265626" rx="0"/><rect width="10.181818008422852" height="10.181818008422852" x="103.2727279663086" y="215.27273559570312" fill="#265626" rx="0"/><rect width="10.181818008422852" height="10.181818008422852" x="164.36363220214844" y="215.27273559570312" fill="#265626" rx="0"/><rect width="10.181818008422852" height="10.181818008422852" x="174.5454559326172" y="215.27273559570312" fill="#265626" rx="0"/><rect width="10.181818008422852" height="10.181818008422852" x="184.72727966308594" y="215.27273559570312" fill="#265626" rx="0"/><rect width="10.181818008422852" height="10.181818008422852" x="215.27273559570312" y="215.27273559570312" fill="#265626" rx="0"/><rect width="10.181818008422852" height="10.181818008422852" x="225.4545440673828" y="215.27273559570312" fill="#265626" rx="0"/><rect width="10.181818008422852" height="10.181818008422852" x="235.63636779785156" y="215.27273559570312" fill="#265626" rx="0"/><rect width="10.181818008422852" height="10.181818008422852" x="256" y="215.27273559570312" fill="#265626" rx="0"/><rect width="10.181818008422852" height="10.181818008422852" x="276.36363220214844" y="215.27273559570312" fill="#265626" rx="0"/><rect width="10.181818008422852" height="10.181818008422852" x="296.7272644042969" y="215.27273559570312" fill="#265626" rx="0"/><rect width="10.181818008422852" height="10.181818008422852" x="306.9090881347656" y="215.27273559570312" fill="#265626" rx="0"/><rect width="10.181818008422852" height="10.181818008422852" x="337.4545593261719" y="215.27273559570312" fill="#265626" rx="0"/><rect width="10.181818008422852" height="10.181818008422852" x="347.6363525390625" y="215.27273559570312" fill="#265626" rx="0"/><rect width="10.181818008422852" height="10.181818008422852" x="62.545454025268555" y="225.4545440673828" fill="#265626" rx="0"/><rect width="10.181818008422852" height="10.181818008422852" x="113.45454406738281" y="225.4545440673828" fill="#265626" rx="0"/><rect width="10.181818008422852" height="10.181818008422852" x="123.63636779785156" y="225.4545440673828" fill="#265626" rx="0"/><rect width="10.181818008422852" height="10.181818008422852" x="154.18181610107422" y="225.4545440673828" fill="#265626" rx="0"/><rect width="10.181818008422852" height="10.181818008422852" x="194.90908813476562" y="225.4545440673828" fill="#265626" rx="0"/><rect width="10.181818008422852" height="10.181818008422852" x="205.09091186523438" y="225.4545440673828" fill="#265626" rx="0"/><rect width="10.181818008422852" height="10.181818008422852" x="215.27273559570312" y="225.4545440673828" fill="#265626" rx="0"/><rect width="10.181818008422852" height="10.181818008422852" x="225.4545440673828" y="225.4545440673828" fill="#265626" rx="0"/><rect width="10.181818008422852" height="10.181818008422852" x="245.81817626953125" y="225.4545440673828" fill="#265626" rx="0"/><rect width="10.181818008422852" height="10.181818008422852" x="266.18182373046875" y="225.4545440673828" fill="#265626" rx="0"/><rect width="10.181818008422852" height="10.181818008422852" x="286.5454559326172" y="225.4545440673828" fill="#265626" rx="0"/><rect width="10.181818008422852" height="10.181818008422852" x="296.7272644042969" y="225.4545440673828" fill="#265626" rx="0"/><rect width="10.181818008422852" height="10.181818008422852" x="306.9090881347656" y="225.4545440673828" fill="#265626" rx="0"/><rect width="10.181818008422852" height="10.181818008422852" x="317.0909118652344" y="225.4545440673828" fill="#265626" rx="0"/><rect width="10.181818008422852" height="10.181818008422852" x="327.2727355957031" y="225.4545440673828" fill="#265626" rx="0"/><rect width="10.181818008422852" height="10.181818008422852" x="357.81817626953125" y="225.4545440673828" fill="#265626" rx="0"/><rect width="10.181818008422852" height="10.181818008422852" x="42.18181800842285" y="235.63636779785156" fill="#265626" rx="0"/><rect width="10.181818008422852" height="10.181818008422852" x="52.3636360168457" y="235.63636779785156" fill="#265626" rx="0"/><rect width="10.181818008422852" height="10.181818008422852" x="72.7272720336914" y="235.63636779785156" fill="#265626" rx="0"/><rect width="10.181818008422852" height="10.181818008422852" x="82.90909194946289" y="235.63636779785156" fill="#265626" rx="0"/><rect width="10.181818008422852" height="10.181818008422852" x="93.09090805053711" y="235.63636779785156" fill="#265626" rx="0"/><rect width="10.181818008422852" height="10.181818008422852" x="103.2727279663086" y="235.63636779785156" fill="#265626" rx="0"/><rect width="10.181818008422852" height="10.181818008422852" x="133.81818389892578" y="235.63636779785156" fill="#265626" rx="0"/><rect width="10.181818008422852" height="10.181818008422852" x="154.18181610107422" y="235.63636779785156" fill="#265626" rx="0"/><rect width="10.181818008422852" height="10.181818008422852" x="164.36363220214844" y="235.63636779785156" fill="#265626" rx="0"/><rect width="10.181818008422852" height="10.181818008422852" x="174.5454559326172" y="235.63636779785156" fill="#265626" rx="0"/><rect width="10.181818008422852" height="10.181818008422852" x="194.90908813476562" y="235.63636779785156" fill="#265626" rx="0"/><rect width="10.181818008422852" height="10.181818008422852" x="225.4545440673828" y="235.63636779785156" fill="#265626" rx="0"/><rect width="10.181818008422852" height="10.181818008422852" x="235.63636779785156" y="235.63636779785156" fill="#265626" rx="0"/><rect width="10.181818008422852" height="10.181818008422852" x="245.81817626953125" y="235.63636779785156" fill="#265626" rx="0"/><rect width="10.181818008422852" height="10.181818008422852" x="256" y="235.63636779785156" fill="#265626" rx="0"/><rect width="10.181818008422852" height="10.181818008422852" x="266.18182373046875" y="235.63636779785156" fill="#265626" rx="0"/><rect width="10.181818008422852" height="10.181818008422852" x="276.36363220214844" y="235.63636779785156" fill="#265626" rx="0"/><rect width="10.181818008422852" height="10.181818008422852" x="286.5454559326172" y="235.63636779785156" fill="#265626" rx="0"/><rect width="10.181818008422852" height="10.181818008422852" x="296.7272644042969" y="235.63636779785156" fill="#265626" rx="0"/><rect width="10.181818008422852" height="10.181818008422852" x="306.9090881347656" y="235.63636779785156" fill="#265626" rx="0"/><rect width="10.181818008422852" height="10.181818008422852" x="337.4545593261719" y="235.63636779785156" fill="#265626" rx="0"/><rect width="10.181818008422852" height="10.181818008422852" x="347.6363525390625" y="235.63636779785156" fill="#265626" rx="0"/><rect width="10.181818008422852" height="10.181818008422852" x="357.81817626953125" y="235.63636779785156" fill="#265626" rx="0"/><rect width="10.181818008422852" height="10.181818008422852" x="32" y="245.81817626953125" fill="#265626" rx="0"/><rect width="10.181818008422852" height="10.181818008422852" x="52.3636360168457" y="245.81817626953125" fill="#265626" rx="0"/><rect width="10.181818008422852" height="10.181818008422852" x="72.7272720336914" y="245.81817626953125" fill="#265626" rx="0"/><rect width="10.181818008422852" height="10.181818008422852" x="82.90909194946289" y="245.81817626953125" fill="#265626" rx="0"/><rect width="10.181818008422852" height="10.181818008422852" x="103.2727279663086" y="245.81817626953125" fill="#265626" rx="0"/><rect width="10.181818008422852" height="10.181818008422852" x="113.45454406738281" y="245.81817626953125" fill="#265626" rx="0"/><rect width="10.181818008422852" height="10.181818008422852" x="164.36363220214844" y="245.81817626953125" fill="#265626" rx="0"/><rect width="10.181818008422852" height="10.181818008422852" x="174.5454559326172" y="245.81817626953125" fill="#265626" rx="0"/><rect width="10.181818008422852" height="10.181818008422852" x="194.90908813476562" y="245.81817626953125" fill="#265626" rx="0"/><rect width="10.181818008422852" height="10.181818008422852" x="205.09091186523438" y="245.81817626953125" fill="#265626" rx="0"/><rect width="10.181818008422852" height="10.181818008422852" x="225.4545440673828" y="245.81817626953125" fill="#265626" rx="0"/><rect width="10.181818008422852" height="10.181818008422852" x="235.63636779785156" y="245.81817626953125" fill="#265626" rx="0"/><rect width="10.181818008422852" height="10.181818008422852" x="266.18182373046875" y="245.81817626953125" fill="#265626" rx="0"/><rect width="10.181818008422852" height="10.181818008422852" x="276.36363220214844" y="245.81817626953125" fill="#265626" rx="0"/><rect width="10.181818008422852" height="10.181818008422852" x="286.5454559326172" y="245.81817626953125" fill="#265626" rx="0"/><rect width="10.181818008422852" height="10.181818008422852" x="306.9090881347656" y="245.81817626953125" fill="#265626" rx="0"/><rect width="10.181818008422852" height="10.181818008422852" x="327.2727355957031" y="245.81817626953125" fill="#265626" rx="0"/><rect width="10.181818008422852" height="10.181818008422852" x="347.6363525390625" y="245.81817626953125" fill="#265626" rx="0"/><rect width="10.181818008422852" height="10.181818008422852" x="32" y="256" fill="#265626" rx="0"/><rect width="10.181818008422852" height="10.181818008422852" x="52.3636360168457" y="256" fill="#265626" rx="0"/><rect width="10.181818008422852" height="10.181818008422852" x="72.7272720336914" y="256" fill="#265626" rx="0"/><rect width="10.181818008422852" height="10.181818008422852" x="93.09090805053711" y="256" fill="#265626" rx="0"/><rect width="10.181818008422852" height="10.181818008422852" x="123.63636779785156" y="256" fill="#265626" rx="0"/><rect width="10.181818008422852" height="10.181818008422852" x="144" y="256" fill="#265626" rx="0"/><rect width="10.181818008422852" height="10.181818008422852" x="154.18181610107422" y="256" fill="#265626" rx="0"/><rect width="10.181818008422852" height="10.181818008422852" x="184.72727966308594" y="256" fill="#265626" rx="0"/><rect width="10.181818008422852" height="10.181818008422852" x="205.09091186523438" y="256" fill="#265626" rx="0"/><rect width="10.181818008422852" height="10.181818008422852" x="266.18182373046875" y="256" fill="#265626" rx="0"/><rect width="10.181818008422852" height="10.181818008422852" x="296.7272644042969" y="256" fill="#265626" rx="0"/><rect width="10.181818008422852" height="10.181818008422852" x="306.9090881347656" y="256" fill="#265626" rx="0"/><rect width="10.181818008422852" height="10.181818008422852" x="317.0909118652344" y="256" fill="#265626" rx="0"/><rect width="10.181818008422852" height="10.181818008422852" x="32" y="266.18182373046875" fill="#265626" rx="0"/><rect width="10.181818008422852" height="10.181818008422852" x="52.3636360168457" y="266.18182373046875" fill="#265626" rx="0"/><rect width="10.181818008422852" height="10.181818008422852" x="62.545454025268555" y="266.18182373046875" fill="#265626" rx="0"/><rect width="10.181818008422852" height="10.181818008422852" x="72.7272720336914" y="266.18182373046875" fill="#265626" rx="0"/><rect width="10.181818008422852" height="10.181818008422852" x="82.90909194946289" y="266.18182373046875" fill="#265626" rx="0"/><rect width="10.181818008422852" height="10.181818008422852" x="123.63636779785156" y="266.18182373046875" fill="#265626" rx="0"/><rect width="10.181818008422852" height="10.181818008422852" x="144" y="266.18182373046875" fill="#265626" rx="0"/><rect width="10.181818008422852" height="10.181818008422852" x="174.5454559326172" y="266.18182373046875" fill="#265626" rx="0"/><rect width="10.181818008422852" height="10.181818008422852" x="184.72727966308594" y="266.18182373046875" fill="#265626" rx="0"/><rect width="10.181818008422852" height="10.181818008422852" x="215.27273559570312" y="266.18182373046875" fill="#265626" rx="0"/><rect width="10.181818008422852" height="10.181818008422852" x="225.4545440673828" y="266.18182373046875" fill="#265626" rx="0"/><rect width="10.181818008422852" height="10.181818008422852" x="235.63636779785156" y="266.18182373046875" fill="#265626" rx="0"/><rect width="10.181818008422852" height="10.181818008422852" x="256" y="266.18182373046875" fill="#265626" rx="0"/><rect width="10.181818008422852" height="10.181818008422852" x="266.18182373046875" y="266.18182373046875" fill="#265626" rx="0"/><rect width="10.181818008422852" height="10.181818008422852" x="276.36363220214844" y="266.18182373046875" fill="#265626" rx="0"/><rect width="10.181818008422852" height="10.181818008422852" x="286.5454559326172" y="266.18182373046875" fill="#265626" rx="0"/><rect width="10.181818008422852" height="10.181818008422852" x="306.9090881347656" y="266.18182373046875" fill="#265626" rx="0"/><rect width="10.181818008422852" height="10.181818008422852" x="317.0909118652344" y="266.18182373046875" fill="#265626" rx="0"/><rect width="10.181818008422852" height="10.181818008422852" x="327.2727355957031" y="266.18182373046875" fill="#265626" rx="0"/><rect width="10.181818008422852" height="10.181818008422852" x="337.4545593261719" y="266.18182373046875" fill="#265626" rx="0"/><rect width="10.181818008422852" height="10.181818008422852" x="32" y="276.36363220214844" fill="#265626" rx="0"/><rect width="10.181818008422852" height="10.181818008422852" x="52.3636360168457" y="276.36363220214844" fill="#265626" rx="0"/><rect width="10.181818008422852" height="10.181818008422852" x="82.90909194946289" y="276.36363220214844" fill="#265626" rx="0"/><rect width="10.181818008422852" height="10.181818008422852" x="93.09090805053711" y="276.36363220214844" fill="#265626" rx="0"/><rect width="10.181818008422852" height="10.181818008422852" x="113.45454406738281" y="276.36363220214844" fill="#265626" rx="0"/><rect width="10.181818008422852" height="10.181818008422852" x="133.81818389892578" y="276.36363220214844" fill="#265626" rx="0"/><rect width="10.181818008422852" height="10.181818008422852" x="144" y="276.36363220214844" fill="#265626" rx="0"/><rect width="10.181818008422852" height="10.181818008422852" x="174.5454559326172" y="276.36363220214844" fill="#265626" rx="0"/><rect width="10.181818008422852" height="10.181818008422852" x="225.4545440673828" y="276.36363220214844" fill="#265626" rx="0"/><rect width="10.181818008422852" height="10.181818008422852" x="245.81817626953125" y="276.36363220214844" fill="#265626" rx="0"/><rect width="10.181818008422852" height="10.181818008422852" x="256" y="276.36363220214844" fill="#265626" rx="0"/><rect width="10.181818008422852" height="10.181818008422852" x="266.18182373046875" y="276.36363220214844" fill="#265626" rx="0"/><rect width="10.181818008422852" height="10.181818008422852" x="276.36363220214844" y="276.36363220214844" fill="#265626" rx="0"/><rect width="10.181818008422852" height="10.181818008422852" x="286.5454559326172" y="276.36363220214844" fill="#265626" rx="0"/><rect width="10.181818008422852" height="10.181818008422852" x="296.7272644042969" y="276.36363220214844" fill="#265626" rx="0"/><rect width="10.181818008422852" height="10.181818008422852" x="306.9090881347656" y="276.36363220214844" fill="#265626" rx="0"/><rect width="10.181818008422852" height="10.181818008422852" x="317.0909118652344" y="276.36363220214844" fill="#265626" rx="0"/><rect width="10.181818008422852" height="10.181818008422852" x="327.2727355957031" y="276.36363220214844" fill="#265626" rx="0"/><rect width="10.181818008422852" height="10.181818008422852" x="347.6363525390625" y="276.36363220214844" fill="#265626" rx="0"/><rect width="10.181818008422852" height="10.181818008422852" x="113.45454406738281" y="286.5454559326172" fill="#265626" rx="0"/><rect width="10.181818008422852" height="10.181818008422852" x="123.63636779785156" y="286.5454559326172" fill="#265626" rx="0"/><rect width="10.181818008422852" height="10.181818008422852" x="133.81818389892578" y="286.5454559326172" fill="#265626" rx="0"/><rect width="10.181818008422852" height="10.181818008422852" x="154.18181610107422" y="286.5454559326172" fill="#265626" rx="0"/><rect width="10.181818008422852" height="10.181818008422852" x="164.36363220214844" y="286.5454559326172" fill="#265626" rx="0"/><rect width="10.181818008422852" height="10.181818008422852" x="184.72727966308594" y="286.5454559326172" fill="#265626" rx="0"/><rect width="10.181818008422852" height="10.181818008422852" x="194.90908813476562" y="286.5454559326172" fill="#265626" rx="0"/><rect width="10.181818008422852" height="10.181818008422852" x="205.09091186523438" y="286.5454559326172" fill="#265626" rx="0"/><rect width="10.181818008422852" height="10.181818008422852" x="235.63636779785156" y="286.5454559326172" fill="#265626" rx="0"/><rect width="10.181818008422852" height="10.181818008422852" x="256" y="286.5454559326172" fill="#265626" rx="0"/><rect width="10.181818008422852" height="10.181818008422852" x="276.36363220214844" y="286.5454559326172" fill="#265626" rx="0"/><rect width="10.181818008422852" height="10.181818008422852" x="317.0909118652344" y="286.5454559326172" fill="#265626" rx="0"/><rect width="10.181818008422852" height="10.181818008422852" x="32" y="296.7272644042969" fill="#265626" rx="0"/><rect width="10.181818008422852" height="10.181818008422852" x="42.18181800842285" y="296.7272644042969" fill="#265626" rx="0"/><rect width="10.181818008422852" height="10.181818008422852" x="52.3636360168457" y="296.7272644042969" fill="#265626" rx="0"/><rect width="10.181818008422852" height="10.181818008422852" x="62.545454025268555" y="296.7272644042969" fill="#265626" rx="0"/><rect width="10.181818008422852" height="10.181818008422852" x="72.7272720336914" y="296.7272644042969" fill="#265626" rx="0"/><rect width="10.181818008422852" height="10.181818008422852" x="82.90909194946289" y="296.7272644042969" fill="#265626" rx="0"/><rect width="10.181818008422852" height="10.181818008422852" x="93.09090805053711" y="296.7272644042969" fill="#265626" rx="0"/><rect width="10.181818008422852" height="10.181818008422852" x="113.45454406738281" y="296.7272644042969" fill="#265626" rx="0"/><rect width="10.181818008422852" height="10.181818008422852" x="133.81818389892578" y="296.7272644042969" fill="#265626" rx="0"/><rect width="10.181818008422852" height="10.181818008422852" x="164.36363220214844" y="296.7272644042969" fill="#265626" rx="0"/><rect width="10.181818008422852" height="10.181818008422852" x="184.72727966308594" y="296.7272644042969" fill="#265626" rx="0"/><rect width="10.181818008422852" height="10.181818008422852" x="215.27273559570312" y="296.7272644042969" fill="#265626" rx="0"/><rect width="10.181818008422852" height="10.181818008422852" x="225.4545440673828" y="296.7272644042969" fill="#265626" rx="0"/><rect width="10.181818008422852" height="10.181818008422852" x="245.81817626953125" y="296.7272644042969" fill="#265626" rx="0"/><rect width="10.181818008422852" height="10.181818008422852" x="276.36363220214844" y="296.7272644042969" fill="#265626" rx="0"/><rect width="10.181818008422852" height="10.181818008422852" x="296.7272644042969" y="296.7272644042969" fill="#265626" rx="0"/><rect width="10.181818008422852" height="10.181818008422852" x="317.0909118652344" y="296.7272644042969" fill="#265626" rx="0"/><rect width="10.181818008422852" height="10.181818008422852" x="327.2727355957031" y="296.7272644042969" fill="#265626" rx="0"/><rect width="10.181818008422852" height="10.181818008422852" x="347.6363525390625" y="296.7272644042969" fill="#265626" rx="0"/><rect width="10.181818008422852" height="10.181818008422852" x="32" y="306.9090881347656" fill="#265626" rx="0"/><rect width="10.181818008422852" height="10.181818008422852" x="93.09090805053711" y="306.9090881347656" fill="#265626" rx="0"/><rect width="10.181818008422852" height="10.181818008422852" x="123.63636779785156" y="306.9090881347656" fill="#265626" rx="0"/><rect width="10.181818008422852" height="10.181818008422852" x="154.18181610107422" y="306.9090881347656" fill="#265626" rx="0"/><rect width="10.181818008422852" height="10.181818008422852" x="164.36363220214844" y="306.9090881347656" fill="#265626" rx="0"/><rect width="10.181818008422852" height="10.181818008422852" x="215.27273559570312" y="306.9090881347656" fill="#265626" rx="0"/><rect width="10.181818008422852" height="10.181818008422852" x="276.36363220214844" y="306.9090881347656" fill="#265626" rx="0"/><rect width="10.181818008422852" height="10.181818008422852" x="317.0909118652344" y="306.9090881347656" fill="#265626" rx="0"/><rect width="10.181818008422852" height="10.181818008422852" x="357.81817626953125" y="306.9090881347656" fill="#265626" rx="0"/><rect width="10.181818008422852" height="10.181818008422852" x="32" y="317.0909118652344" fill="#265626" rx="0"/><rect width="10.181818008422852" height="10.181818008422852" x="52.3636360168457" y="317.0909118652344" fill="#265626" rx="0"/><rect width="10.181818008422852" height="10.181818008422852" x="62.545454025268555" y="317.0909118652344" fill="#265626" rx="0"/><rect width="10.181818008422852" height="10.181818008422852" x="72.7272720336914" y="317.0909118652344" fill="#265626" rx="0"/><rect width="10.181818008422852" height="10.181818008422852" x="93.09090805053711" y="317.0909118652344" fill="#265626" rx="0"/><rect width="10.181818008422852" height="10.181818008422852" x="113.45454406738281" y="317.0909118652344" fill="#265626" rx="0"/><rect width="10.181818008422852" height="10.181818008422852" x="123.63636779785156" y="317.0909118652344" fill="#265626" rx="0"/><rect width="10.181818008422852" height="10.181818008422852" x="154.18181610107422" y="317.0909118652344" fill="#265626" rx="0"/><rect width="10.181818008422852" height="10.181818008422852" x="194.90908813476562" y="317.0909118652344" fill="#265626" rx="0"/><rect width="10.181818008422852" height="10.181818008422852" x="225.4545440673828" y="317.0909118652344" fill="#265626" rx="0"/><rect width="10.181818008422852" height="10.181818008422852" x="245.81817626953125" y="317.0909118652344" fill="#265626" rx="0"/><rect width="10.181818008422852" height="10.181818008422852" x="256" y="317.0909118652344" fill="#265626" rx="0"/><rect width="10.181818008422852" height="10.181818008422852" x="266.18182373046875" y="317.0909118652344" fill="#265626" rx="0"/><rect width="10.181818008422852" height="10.181818008422852" x="276.36363220214844" y="317.0909118652344" fill="#265626" rx="0"/><rect width="10.181818008422852" height="10.181818008422852" x="286.5454559326172" y="317.0909118652344" fill="#265626" rx="0"/><rect width="10.181818008422852" height="10.181818008422852" x="296.7272644042969" y="317.0909118652344" fill="#265626" rx="0"/><rect width="10.181818008422852" height="10.181818008422852" x="306.9090881347656" y="317.0909118652344" fill="#265626" rx="0"/><rect width="10.181818008422852" height="10.181818008422852" x="317.0909118652344" y="317.0909118652344" fill="#265626" rx="0"/><rect width="10.181818008422852" height="10.181818008422852" x="327.2727355957031" y="317.0909118652344" fill="#265626" rx="0"/><rect width="10.181818008422852" height="10.181818008422852" x="357.81817626953125" y="317.0909118652344" fill="#265626" rx="0"/><rect width="10.181818008422852" height="10.181818008422852" x="32" y="327.2727355957031" fill="#265626" rx="0"/><rect width="10.181818008422852" height="10.181818008422852" x="52.3636360168457" y="327.2727355957031" fill="#265626" rx="0"/><rect width="10.181818008422852" height="10.181818008422852" x="62.545454025268555" y="327.2727355957031" fill="#265626" rx="0"/><rect width="10.181818008422852" height="10.181818008422852" x="72.7272720336914" y="327.2727355957031" fill="#265626" rx="0"/><rect width="10.181818008422852" height="10.181818008422852" x="93.09090805053711" y="327.2727355957031" fill="#265626" rx="0"/><rect width="10.181818008422852" height="10.181818008422852" x="113.45454406738281" y="327.2727355957031" fill="#265626" rx="0"/><rect width="10.181818008422852" height="10.181818008422852" x="123.63636779785156" y="327.2727355957031" fill="#265626" rx="0"/><rect width="10.181818008422852" height="10.181818008422852" x="133.81818389892578" y="327.2727355957031" fill="#265626" rx="0"/><rect width="10.181818008422852" height="10.181818008422852" x="184.72727966308594" y="327.2727355957031" fill="#265626" rx="0"/><rect width="10.181818008422852" height="10.181818008422852" x="194.90908813476562" y="327.2727355957031" fill="#265626" rx="0"/><rect width="10.181818008422852" height="10.181818008422852" x="205.09091186523438" y="327.2727355957031" fill="#265626" rx="0"/><rect width="10.181818008422852" height="10.181818008422852" x="225.4545440673828" y="327.2727355957031" fill="#265626" rx="0"/><rect width="10.181818008422852" height="10.181818008422852" x="256" y="327.2727355957031" fill="#265626" rx="0"/><rect width="10.181818008422852" height="10.181818008422852" x="266.18182373046875" y="327.2727355957031" fill="#265626" rx="0"/><rect width="10.181818008422852" height="10.181818008422852" x="286.5454559326172" y="327.2727355957031" fill="#265626" rx="0"/><rect width="10.181818008422852" height="10.181818008422852" x="296.7272644042969" y="327.2727355957031" fill="#265626" rx="0"/><rect width="10.181818008422852" height="10.181818008422852" x="317.0909118652344" y="327.2727355957031" fill="#265626" rx="0"/><rect width="10.181818008422852" height="10.181818008422852" x="347.6363525390625" y="327.2727355957031" fill="#265626" rx="0"/><rect width="10.181818008422852" height="10.181818008422852" x="32" y="337.4545593261719" fill="#265626" rx="0"/><rect width="10.181818008422852" height="10.181818008422852" x="52.3636360168457" y="337.4545593261719" fill="#265626" rx="0"/><rect width="10.181818008422852" height="10.181818008422852" x="62.545454025268555" y="337.4545593261719" fill="#265626" rx="0"/><rect width="10.181818008422852" height="10.181818008422852" x="72.7272720336914" y="337.4545593261719" fill="#265626" rx="0"/><rect width="10.181818008422852" height="10.181818008422852" x="93.09090805053711" y="337.4545593261719" fill="#265626" rx="0"/><rect width="10.181818008422852" height="10.181818008422852" x="113.45454406738281" y="337.4545593261719" fill="#265626" rx="0"/><rect width="10.181818008422852" height="10.181818008422852" x="123.63636779785156" y="337.4545593261719" fill="#265626" rx="0"/><rect width="10.181818008422852" height="10.181818008422852" x="144" y="337.4545593261719" fill="#265626" rx="0"/><rect width="10.181818008422852" height="10.181818008422852" x="154.18181610107422" y="337.4545593261719" fill="#265626" rx="0"/><rect width="10.181818008422852" height="10.181818008422852" x="184.72727966308594" y="337.4545593261719" fill="#265626" rx="0"/><rect width="10.181818008422852" height="10.181818008422852" x="205.09091186523438" y="337.4545593261719" fill="#265626" rx="0"/><rect width="10.181818008422852" height="10.181818008422852" x="215.27273559570312" y="337.4545593261719" fill="#265626" rx="0"/><rect width="10.181818008422852" height="10.181818008422852" x="225.4545440673828" y="337.4545593261719" fill="#265626" rx="0"/><rect width="10.181818008422852" height="10.181818008422852" x="235.63636779785156" y="337.4545593261719" fill="#265626" rx="0"/><rect width="10.181818008422852" height="10.181818008422852" x="256" y="337.4545593261719" fill="#265626" rx="0"/><rect width="10.181818008422852" height="10.181818008422852" x="327.2727355957031" y="337.4545593261719" fill="#265626" rx="0"/><rect width="10.181818008422852" height="10.181818008422852" x="32" y="347.6363525390625" fill="#265626" rx="0"/><rect width="10.181818008422852" height="10.181818008422852" x="93.09090805053711" y="347.6363525390625" fill="#265626" rx="0"/><rect width="10.181818008422852" height="10.181818008422852" x="113.45454406738281" y="347.6363525390625" fill="#265626" rx="0"/><rect width="10.181818008422852" height="10.181818008422852" x="144" y="347.6363525390625" fill="#265626" rx="0"/><rect width="10.181818008422852" height="10.181818008422852" x="194.90908813476562" y="347.6363525390625" fill="#265626" rx="0"/><rect width="10.181818008422852" height="10.181818008422852" x="225.4545440673828" y="347.6363525390625" fill="#265626" rx="0"/><rect width="10.181818008422852" height="10.181818008422852" x="245.81817626953125" y="347.6363525390625" fill="#265626" rx="0"/><rect width="10.181818008422852" height="10.181818008422852" x="276.36363220214844" y="347.6363525390625" fill="#265626" rx="0"/><rect width="10.181818008422852" height="10.181818008422852" x="286.5454559326172" y="347.6363525390625" fill="#265626" rx="0"/><rect width="10.181818008422852" height="10.181818008422852" x="296.7272644042969" y="347.6363525390625" fill="#265626" rx="0"/><rect width="10.181818008422852" height="10.181818008422852" x="306.9090881347656" y="347.6363525390625" fill="#265626" rx="0"/><rect width="10.181818008422852" height="10.181818008422852" x="317.0909118652344" y="347.6363525390625" fill="#265626" rx="0"/><rect width="10.181818008422852" height="10.181818008422852" x="327.2727355957031" y="347.6363525390625" fill="#265626" rx="0"/><rect width="10.181818008422852" height="10.181818008422852" x="337.4545593261719" y="347.6363525390625" fill="#265626" rx="0"/><rect width="10.181818008422852" height="10.181818008422852" x="347.6363525390625" y="347.6363525390625" fill="#265626" rx="0"/><rect width="10.181818008422852" height="10.181818008422852" x="357.81817626953125" y="347.6363525390625" fill="#265626" rx="0"/><rect width="10.181818008422852" height="10.181818008422852" x="32" y="357.81817626953125" fill="#265626" rx="0"/><rect width="10.181818008422852" height="10.181818008422852" x="42.18181800842285" y="357.81817626953125" fill="#265626" rx="0"/><rect width="10.181818008422852" height="10.181818008422852" x="52.3636360168457" y="357.81817626953125" fill="#265626" rx="0"/><rect width="10.181818008422852" height="10.181818008422852" x="62.545454025268555" y="357.81817626953125" fill="#265626" rx="0"/><rect width="10.181818008422852" height="10.181818008422852" x="72.7272720336914" y="357.81817626953125" fill="#265626" rx="0"/><rect width="10.181818008422852" height="10.181818008422852" x="82.90909194946289" y="357.81817626953125" fill="#265626" rx="0"/><rect width="10.181818008422852" height="10.181818008422852" x="93.09090805053711" y="357.81817626953125" fill="#265626" rx="0"/><rect width="10.181818008422852" height="10.181818008422852" x="113.45454406738281" y="357.81817626953125" fill="#265626" rx="0"/><rect width="10.181818008422852" height="10.181818008422852" x="123.63636779785156" y="357.81817626953125" fill="#265626" rx="0"/><rect width="10.181818008422852" height="10.181818008422852" x="144" y="357.81817626953125" fill="#265626" rx="0"/><rect width="10.181818008422852" height="10.181818008422852" x="154.18181610107422" y="357.81817626953125" fill="#265626" rx="0"/><rect width="10.181818008422852" height="10.181818008422852" x="194.90908813476562" y="357.81817626953125" fill="#265626" rx="0"/><rect width="10.181818008422852" height="10.181818008422852" x="205.09091186523438" y="357.81817626953125" fill="#265626" rx="0"/><rect width="10.181818008422852" height="10.181818008422852" x="225.4545440673828" y="357.81817626953125" fill="#265626" rx="0"/><rect width="10.181818008422852" height="10.181818008422852" x="245.81817626953125" y="357.81817626953125" fill="#265626" rx="0"/><rect width="10.181818008422852" height="10.181818008422852" x="256" y="357.81817626953125" fill="#265626" rx="0"/><rect width="10.181818008422852" height="10.181818008422852" x="266.18182373046875" y="357.81817626953125" fill="#265626" rx="0"/><rect width="10.181818008422852" height="10.181818008422852" x="276.36363220214844" y="357.81817626953125" fill="#265626" rx="0"/><rect width="10.181818008422852" height="10.181818008422852" x="296.7272644042969" y="357.81817626953125" fill="#265626" rx="0"/><rect width="10.181818008422852" height="10.181818008422852" x="317.0909118652344" y="357.81817626953125" fill="#265626" rx="0"/><rect width="10.181818008422852" height="10.181818008422852" x="337.4545593261719" y="357.81817626953125" fill="#265626" rx="0"/><rect width="10.181818008422852" height="10.181818008422852" x="347.6363525390625" y="357.81817626953125" fill="#265626" rx="0"/></g></svg>