<svg xmlns="http://www.w3.org/2000/svg" width="24" height="24" fill="none" viewBox="0 0 24 24"><defs><filter id="a" width="3.100000001490116" height="4.04559288173914" x="0" y="0" color-interpolation-filters="sRGB" filterUnits="objectBoundingBox"><feFlood flood-opacity="0" result="BackgroundImageFix"/><feColorMatrix in="SourceAlpha" values="0 0 0 0 0 0 0 0 0 0 0 0 0 0 0 0 0 0 127 0"/><feOffset dx="0.10000000149011612" dy="0.10000000149011612"/><feGaussianBlur/><feColorMatrix values="0 0 0 0 0 0 0 0 0 0 0 0 0 0 0 0 0 0 0.3019607961177826 0"/><feBlend in2="BackgroundImageFix" result="effect1_dropShadow"/><feBlend in="SourceGraphic" in2="effect1_dropShadow" result="shape"/></filter></defs><g style="mix-blend-mode:passthrough"><path fill="#FA4" d="m14.707 20.955-7.79 1.522a2.165 2.165 0 0 1-2.541-1.711l-2.48-12.71a2.166 2.166 0 0 1 1.711-2.541l7.79-1.521a2.166 2.166 0 0 1 2.541 1.71l2.482 12.71a2.17 2.17 0 0 1-1.713 2.541Z"/><path fill="#07C160" d="m18.675 22.2-11.897-.99A2.166 2.166 0 0 1 4.8 18.875l1.277-15.37a2.166 2.166 0 0 1 2.337-1.978l11.897.989a2.166 2.166 0 0 1 1.978 2.337l-1.277 15.37a2.167 2.167 0 0 1-2.337 1.978Z"/><path fill="#FF920F" d="M19.66 3.042 8.966 2.154a2.761 2.761 0 0 0-2.095.717 7.411 7.411 0 0 0 6.792 7.545 7.405 7.405 0 0 0 7.943-6.32 2.756 2.756 0 0 0-1.948-1.054Z"/><path fill="#FA4" d="m19.706 2.463-10.69-.888C8.217 1.509 7 1.5 6.921 2.292a7.405 7.405 0 0 0 14.733 1.223 2.757 2.757 0 0 0-1.948-1.052Z"/><path fill="#F7554D" d="M10.155 9.803a3.485 3.485 0 1 0 6.97 0 3.485 3.485 0 0 0-6.97 0Z"/><path fill="#FF7E71" d="M10 9.487a3.485 3.485 0 1 0 6.97 0 3.485 3.485 0 1 0-6.97 0Z"/><g filter="url(#a)" style="mix-blend-mode:passthrough" transform="rotate(13.687 12.5 7.5)"><path fill="#FFF" d="m15.295 9.473-.836.042.016.318.836-.041.027.528-.837.042.053 1.046-.754.038-.053-1.046-.836.042-.027-.529.837-.042-.016-.319-.836.042-.027-.528.693-.035-1.035-1.38.804-.041.732 1.06.038-.001.645-1.13.781-.039-.919 1.479.688-.035.026.529Z"/></g></g></svg>