<svg xmlns="http://www.w3.org/2000/svg" width="18" height="18" fill="none" viewBox="48 0 18 18"><g style="mix-blend-mode:passthrough"><g style="mix-blend-mode:passthrough"><path fill="#B5B8C0" d="M2.527 8.57h3.168V5.86h-.074Q4.22 7.592 1.062 8.737l-.457-.77q2.856-.832 4.286-2.109H1.18V5.07h4.515V3.965h.84V5.07h4.512v.79H7.363q1.356 1.323 4.188 2.085l-.371.781Q7.926 7.616 6.605 5.86h-.07v2.71h3.156v4.27H2.527V8.57Zm6.325 3.5v-1H3.367v1h5.485Zm-5.485-1.746h5.485v-.988H3.367v.988ZM.941 13.82H11.25v.805H.941v-.805Zm12.493-7.5h3.804l.371-.852q-1.765.11-3.816.11l-.25-.758q5.113 0 8.473-.684l.394.684q-1.668.379-3.973.559-.132.398-.347.941h4.465v.746h-4.813q-.144.262-.457.738h5.965v.766h-6.492q-.36.457-.66.79h5.953v5.71h-.828v-.54h-5.426v.54h-.828v-4.563q-.985.903-2.028 1.622l-.468-.75q1.98-1.332 3.238-2.809h-2.926v-.766h3.527q.301-.39.528-.738h-3.406V6.32Zm2.363 5.25v.75h5.426v-.75h-5.426Zm5.426-.71v-.79h-5.426v.79h5.426Zm-5.426 2.17v.79h5.426v-.79h-5.426Zm14.512-9.003q2.242 2.356 5.218 3.734l-.43.766q-2.976-1.437-5.1-3.719-1.958 2.172-5.15 3.782l-.417-.758q3.156-1.524 5.254-3.805h.625Zm-3.66 3.793h6.695v.828H30.44v2.113h3.465v.829H30.44v2.218H35v.852h-9.996v-.852h4.547V11.59h-3.48v-.828h3.48V8.648h-2.903V7.82Zm16.523-3.14h3.726v.62q-.515 1.833-1.129 3.458 1.274 1.765 1.286 2.902 0 .96-.43 1.363-.465.406-1.836.406l-.242-.87q.594.046.754.046.617-.035.789-.21.16-.216.172-.747-.024-1.11-1.313-2.89.559-1.438 1.082-3.313H44v9.625h-.828V4.68Zm-6.422.574h2.438q-.188-.649-.372-1.09l.875-.145q.168.492.36 1.235h2.39v.816H36.75v-.816Zm-.227 3.226h1.621q-.296-.863-.746-1.683l.782-.282q.41.746.78 1.965h1.298q.504-.969.863-2.047l.805.27q-.371.98-.817 1.777H42.5v.84h-5.977v-.84Zm5.426 1.84v4.5h-.828v-.695h-3.098v.718h-.84V10.32h4.766Zm-3.926 3h3.098v-2.207h-3.098v2.207Z"/><path fill="#999" fill-rule="evenodd" d="M22.555 6.804V6.32H18.09l.099-.254q.087-.226.157-.424.05-.139.091-.263l.313-.026.367-.033q1.227-.116 2.257-.294.412-.071.792-.152l.244-.054-.394-.684q-1.326.27-2.924.433-.713.073-1.48.125-1.417.095-3.018.119-.395.005-.801.007h-.25l.165.5.085.258q1.418 0 2.7-.053.379-.015.745-.035l.102-.006.27-.016-.103.235-.158.363-.11.254h-3.805v.746h3.406q-.081.124-.171.254-.086.123-.18.25-.085.115-.177.234h-3.527v.766h2.926q-.1.118-.205.234-.12.134-.246.266-.222.234-.463.464l-.038.036q-.423.4-.902.79-.641.519-1.384 1.019l.468.75.025-.017q.396-.275.785-.575l.218-.172q.419-.335.828-.702l.103-.093.069-.063v4.563h.828v-.54h5.426v.54h.828V9.36h-5.953q.121-.135.253-.29.107-.126.22-.266.091-.112.187-.234h6.492v-.766h-5.965q.082-.124.152-.234.087-.136.156-.25.09-.145.15-.254h4.812v-.262Zm14.195-1.55v.816h5.691v-.816h-2.39l-.048-.184q-.165-.62-.312-1.05l-.875.144.037.09.018.045q.13.334.262.771l.016.052q.02.065.038.132H36.75ZM26.07 10.76v.829h3.48v2.218h-4.546v.852H35v-.852h-4.559V11.59h3.465v-.828h-3.465V8.648h2.903V7.82h-6.696v.828h2.903v2.113h-3.48Zm10.453-2.28v.839H42.5v-.84h-1.39l.087-.16q.178-.33.343-.692l.067-.148q.09-.2.175-.41.073-.18.144-.367l-.805-.27-.014.042q-.101.302-.214.595-.25.646-.553 1.25l-.082.16H38.96l-.05-.16q-.223-.71-.46-1.25-.133-.304-.271-.555l-.782.282.062.114.083.159q.105.204.2.41l.098.22q.134.307.247.62l.056.16h-1.62Zm.66 6.362h.84v-.718h3.098v.695h.828v-4.5h-4.765v4.523Zm.84-1.718v.195h3.098v-2.207h-3.098v2.012Zm5.149-2.805v4.75H44V5.445h2.031l-.066.234q-.112.393-.225.766-.362 1.191-.74 2.18l-.05.133.05.07q1.239 1.733 1.262 2.82-.012.531-.172.746l-.008.008-.021.019q-.137.11-.47.157-.13.018-.29.027-.087 0-.301-.014l-.21-.014-.243-.019.242.871q.108 0 .211-.002 1.197-.03 1.625-.404.43-.402.43-1.363-.011-1.062-1.123-2.672-.078-.114-.163-.23l.14-.376q.47-1.288.881-2.703.055-.188.108-.379v-.62h-3.726v5.64Zm-8.54-3.005q-.145-.077-.288-.157-.294-.164-.58-.338-1.903-1.163-3.455-2.793h-.625q-1.451 1.578-3.408 2.793-.308.19-.628.373-.162.092-.328.182-.42.229-.861.443l-.03.014.419.758q.41-.208.8-.424 1.142-.633 2.109-1.346.836-.617 1.542-1.293.256-.246.495-.5l.045-.048q.08-.085.157-.17.08.086.163.172l.045.046q.243.252.497.493.732.694 1.553 1.3.981.724 2.09 1.322.37.2.754.385l.425-.759.004-.007-.004-.001-.045-.021q-.431-.202-.847-.424ZM15.796 10.36v.5h5.426v-.789h-5.426v.29Zm.172 1.211h-.172v.75h5.426v-.75h-5.254Zm0 1.46h-.172v.79h5.426v-.79h-5.254Zm-8.02-7.17h3.098v-.79H6.535V3.965h-.84V5.07H1.18v.79h3.71q-.094.084-.195.166l-.054.044q-.525.42-1.213.79-.715.382-1.606.71l-.239.086-.056.02q-.366.127-.76.245l-.162.047.458.77q.237-.086.464-.176Q2.681 8.11 3.58 7.57q.564-.339 1.027-.71l.09-.073q.1-.083.195-.168.3-.266.551-.549l.093-.107.086-.104h.074V8.57H2.527v4.27h7.164V8.57H6.535V5.86h.07l.09.115q.038.048.078.095.263.314.59.607.084.075.172.148l.041.034q.456.374 1.022.711.905.539 2.093.982.239.09.489.174l.37-.781-.095-.026q-.397-.109-.764-.23l-.109-.035-.241-.084q-.897-.32-1.602-.71-.655-.364-1.146-.79l-.058-.05q-.089-.08-.172-.16h.586ZM3.527 9.335h-.16v.988h5.485v-.988H3.527Zm5.164 1.734H3.367v1h5.485v-1h-.16Zm-7.75 2.75v.805H11.25v-.805H.941Z"/></g><g style="mix-blend-mode:passthrough"><rect width="18" height="18" x="48" fill="#FFF" fill-opacity="0.009999999776482582" rx="0"/><path fill="#999" d="m54.772 4.854 4.5 4.5.353-.354-.353-.354-4.5 4.5q-.035.035-.063.076-.027.041-.046.087-.019.045-.028.093-.01.049-.01.098 0 .05.01.098t.028.093q.019.046.046.087.028.04.063.076.034.034.075.062.041.027.087.046.045.019.094.028.048.01.097.01.05 0 .098-.01t.093-.028q.046-.019.087-.046.04-.028.076-.062l4.5-4.5q.034-.035.062-.076.027-.041.046-.087.019-.045.028-.093.01-.049.01-.098 0-.05-.01-.098t-.028-.093q-.019-.046-.046-.087-.028-.04-.062-.076l-4.5-4.5q-.035-.034-.076-.062-.041-.027-.087-.046-.045-.019-.093-.028-.049-.01-.098-.01-.05 0-.097.01-.049.01-.094.028-.046.019-.087.046-.04.028-.075.062-.035.035-.063.076-.027.041-.046.087-.019.045-.028.093-.01.049-.01.098 0 .05.01.098t.028.093q.019.046.046.087.028.04.063.076Zm-.147-.354q0 .05.01.098t.028.093q.019.046.046.087.028.04.063.076.034.034.075.062.041.027.087.046.045.019.094.028.048.01.097.01.05 0 .098-.01t.093-.028q.046-.019.087-.046.04-.028.076-.062.034-.035.062-.076.027-.041.046-.087.019-.045.028-.093.01-.049.01-.098 0-.05-.01-.098t-.028-.093q-.019-.046-.046-.087-.028-.04-.062-.076-.035-.034-.076-.062-.041-.027-.087-.046-.045-.019-.093-.028-.049-.01-.098-.01-.05 0-.097.01-.049.01-.094.028-.046.019-.087.046-.04.028-.075.062-.035.035-.063.076-.027.041-.046.087-.019.045-.028.093-.01.049-.01.098Zm0 9q0 .05.01.098t.028.093q.019.046.046.087.028.04.063.076.034.034.075.062.041.027.087.046.045.019.094.028.048.01.097.01.05 0 .098-.01t.093-.028q.046-.019.087-.046.04-.028.076-.062.034-.035.062-.076.027-.041.046-.087.019-.045.028-.093.01-.049.01-.098 0-.05-.01-.098t-.028-.093q-.019-.046-.046-.087-.028-.04-.062-.076-.035-.034-.076-.062-.041-.027-.087-.046-.045-.019-.093-.028-.049-.01-.098-.01-.05 0-.097.01-.049.01-.094.028-.046.019-.087.046-.04.028-.075.062-.035.035-.063.076-.027.041-.046.087-.019.045-.028.093-.01.049-.01.098Z"/></g></g></svg>