<svg xmlns="http://www.w3.org/2000/svg" width="9.62663459777832" height="6.04337739944458" fill="none" viewBox="0 0 9.62663459777832 6.04337739944458"><path fill="#000" fill-rule="evenodd" d="M8.494 0h.566c.313 0 .567.254.567.566v4.908a.566.566 0 0 1-.567.567h-.566a.566.566 0 0 1-.566-.567V.566c0-.312.253-.566.566-.566ZM5.851 1.324h.567c.313 0 .566.254.566.567v3.586a.566.566 0 0 1-.566.566H5.85a.566.566 0 0 1-.566-.566V1.891c0-.313.254-.567.566-.567ZM3.21 2.644h.566c.313 0 .566.254.566.567v2.265a.566.566 0 0 1-.566.566H3.21a.566.566 0 0 1-.566-.566V3.211c0-.313.253-.566.566-.566ZM.566 3.778h.567c.312 0 .566.254.566.567v1.132a.566.566 0 0 1-.566.567H.566A.566.566 0 0 1 0 5.476V4.344c0-.313.254-.567.566-.567Z" style="mix-blend-mode:passthrough"/></svg>