<svg xmlns="http://www.w3.org/2000/svg" width="16" height="16" fill="none" viewBox="0 0 16 16"><defs><clipPath id="a"><rect width="16" height="16" rx="0"/></clipPath><filter id="b" width="11" height="10.5" x="0" y="0" color-interpolation-filters="sRGB" filterUnits="objectBoundingBox"><feFlood flood-opacity="0" result="BackgroundImageFix"/><feColorMatrix in="SourceAlpha" values="0 0 0 0 0 0 0 0 0 0 0 0 0 0 0 0 0 0 127 0"/><feOffset dx="0.5" dy="0.5"/><feGaussianBlur/><feColorMatrix values="0 0 0 0 0 0 0 0 0 0 0 0 0 0 0 0 0 0 0.3019607961177826 0"/><feBlend in2="BackgroundImageFix" result="effect1_dropShadow"/><feBlend in="SourceGraphic" in2="effect1_dropShadow" result="shape"/></filter></defs><g clip-path="url(#a)" style="mix-blend-mode:passthrough"><rect width="16" height="16" fill="#FFF" rx="0"/><g style="mix-blend-mode:passthrough"><rect width="16" height="16" fill="#86909C" rx="2" style="mix-blend-mode:passthrough"/><g filter="url(#b)"><path fill="#FFF" d="M13.126 5.518c.169.378.165.818-.01 1.193a1.368 1.368 0 0 1-.367.476 1.286 1.286 0 0 1-.526.262 1.25 1.25 0 0 1-.582-.003 1.287 1.287 0 0 1-.524-.267 1.37 1.37 0 0 1-.362-.48 1.438 1.438 0 0 1-.13-.596c0 .367-.139.719-.384.976a1.285 1.285 0 0 1-.928.404c-.348 0-.68-.145-.928-.404A1.416 1.416 0 0 1 8 6.103c0 .367-.139.719-.385.976-.247.259-.58.404-.928.404-.347 0-.68-.145-.928-.404a1.416 1.416 0 0 1-.384-.976c0 .207-.045.411-.13.597a1.37 1.37 0 0 1-.362.479c-.154.13-.333.22-.524.267a1.25 1.25 0 0 1-.582.003 1.286 1.286 0 0 1-.526-.262 1.368 1.368 0 0 1-.367-.476 1.444 1.444 0 0 1-.01-1.193l.418-1.978a.695.695 0 0 1 .23-.388.637.637 0 0 1 .41-.152h8.135c.15 0 .295.053.411.152a.695.695 0 0 1 .23.388l.418 1.978Zm-.541 2.54a.729.729 0 0 1 .009.114v4.138c0 .184-.07.36-.192.488a.64.64 0 0 1-.464.202H4.062a.64.64 0 0 1-.464-.202.708.708 0 0 1-.192-.488V8.172a.76.76 0 0 1 .009-.114 1.909 1.909 0 0 0 1.96-.413c.362.34.83.528 1.312.527.484.001.95-.186 1.313-.527.362.341.83.529 1.312.527.484.002.95-.186 1.313-.527a1.904 1.904 0 0 0 1.96.413ZM5.539 9.552a.48.48 0 0 0-.348.151.53.53 0 0 0-.144.366v1.034c0 .138.052.27.144.366a.48.48 0 0 0 .348.152.48.48 0 0 0 .348-.152.53.53 0 0 0 .144-.366V10.07a.53.53 0 0 0-.144-.366.48.48 0 0 0-.348-.151Z"/></g></g></g></svg>