<svg xmlns="http://www.w3.org/2000/svg" width="8.648763656616211" height="6.21170711517334" fill="none" viewBox="0 0 8.648763656616211 6.21170711517334"><path fill="#000" fill-rule="evenodd" d="M7.696 2.636a4.893 4.893 0 0 0-6.743 0 .174.174 0 0 1-.245-.001l-.655-.661a.182.182 0 0 1 .002-.258 6.171 6.171 0 0 1 8.54 0 .182.182 0 0 1 0 .258l-.654.66a.174.174 0 0 1-.245.002Zm-3.372.805c.69 0 1.355.256 1.866.719a.175.175 0 0 0 .245-.003l.654-.66a.183.183 0 0 0-.003-.26 4.054 4.054 0 0 0-5.523 0 .182.182 0 0 0-.002.26l.654.66a.176.176 0 0 0 .245.003 2.779 2.779 0 0 1 1.864-.719Zm1.258 1.577a.178.178 0 0 0-.005-.259 1.938 1.938 0 0 0-2.503 0 .178.178 0 0 0-.005.259L4.2 6.159a.176.176 0 0 0 .251 0l1.131-1.141Z" style="mix-blend-mode:passthrough"/></svg>