<svg xmlns="http://www.w3.org/2000/svg" width="16" height="16" fill="none" viewBox="0 0 16 16"><defs><clipPath id="a"><rect width="16" height="16" rx="0"/></clipPath><filter id="b" width="9.5" height="9.5" x="0" y="0" color-interpolation-filters="sRGB" filterUnits="objectBoundingBox"><feFlood flood-opacity="0" result="BackgroundImageFix"/><feColorMatrix in="SourceAlpha" values="0 0 0 0 0 0 0 0 0 0 0 0 0 0 0 0 0 0 127 0"/><feOffset dx="0.5" dy="0.5"/><feGaussianBlur/><feColorMatrix values="0 0 0 0 0 0 0 0 0 0 0 0 0 0 0 0 0 0 0.3019607961177826 0"/><feBlend in2="BackgroundImageFix" result="effect1_dropShadow"/><feBlend in="SourceGraphic" in2="effect1_dropShadow" result="shape"/></filter></defs><g clip-path="url(#a)" style="mix-blend-mode:passthrough"><rect width="16" height="16" fill="#FFF" rx="0"/><path fill="#86909C" d="M2 0h12a2 2 0 0 1 2 2v12a2 2 0 0 1-2 2H2a2 2 0 0 1-2-2V2a2 2 0 0 1 2-2"/><g filter="url(#b)"><path fill="#FFF" d="M10.7 5.3v.9h1.8V3.5h-9v2.7h1.8v-.9h1.8v5.4h-.9v1.8h3.6v-1.8h-.9V5.3h1.8Z"/></g></g></svg>